<?xml version="1.0" encoding="utf-8"?>
<!DOCTYPE svg PUBLIC "-//W3C//DTD SVG 1.1//EN" "http://www.w3.org/Graphics/SVG/1.1/DTD/svg11.dtd">
<svg version="1.1" id="Layer_1" xmlns="http://www.w3.org/2000/svg" xmlns:xlink="http://www.w3.org/1999/xlink" x="0px" y="0px"
width="1147px" height="1147px" viewBox="0 0 1147 1147" enable-background="new 0 0 1147 1147" xml:space="preserve">
<rect x="0" y="0" width="1147" height="1147" fill="rgb(252,248,240)" /><g transform="translate(62,62)"><g transform="translate(310,0) scale(0.062,0.062)"><g transform="" style="fill: rgb(138, 163, 255);">
<path d="M250,0c138.077,0,250,111.93,250,250c0,138.077-111.923,250-250,250C111.93,500,0,388.077,0,250C0,111.93,111.93,0,250,0z"
	/>
</g></g><g transform="translate(434,0) scale(0.062,0.062)"><g transform="" style="fill: rgb(138, 163, 255);">
<path d="M250,0c138.077,0,250,111.93,250,250c0,138.077-111.923,250-250,250C111.93,500,0,388.077,0,250C0,111.93,111.93,0,250,0z"
	/>
</g></g><g transform="translate(496,0) scale(2.2142857142857,2.2142857142857)"><g transform="" style="fill: rgb(138, 163, 255);">
    <path d="M14,14H0c0,0,4.38-9.15,0.55-14C0.55,0,14-0.24,14,14z"/>
</g></g><g transform="translate(558,0) scale(2.2142857142857,2.2142857142857)"><g transform="" style="fill: rgb(138, 163, 255);">
    <path d="M13.999-0.001v14H0.029H0v-3.431C0,4.729,6.267-0.001,13.999-0.001z"/>
</g></g><g transform="translate(589,0) scale(0.31,0.31)"><g transform="" style="fill: rgb(138, 163, 255);">
<rect width="100" height="100"/>
</g></g><g transform="translate(620,0) scale(0.31,0.31)"><g transform="" style="fill: rgb(138, 163, 255);">
<rect width="100" height="100"/>
</g></g><g transform="translate(651,0) scale(2.2142857142857,2.2142857142857)"><g transform="" style="fill: rgb(138, 163, 255);">
    <path d="M13.999,13.999H0V0.028v-0.029h3.43C9.269-0.001,13.999,6.267,13.999,13.999z"/>
</g></g><g transform="translate(713,0) scale(2.2142857142857,2.2142857142857)"><g transform="" style="fill: rgb(138, 163, 255);">
    <path d="M13.999,0v14c0,0-9.151-4.381-14-0.551C-0.001,13.449-0.242,0,13.999,0z"/>
</g></g><g transform="translate(744,0) scale(2.2142857142857,2.2142857142857)"><g transform="" style="fill: rgb(138, 163, 255);">
    <path d="M0,14V0c0,0,9.15,4.38,14,0.55C14,0.55,14.24,14,0,14z"/>
</g></g><g transform="translate(341,31) scale(0.062,0.062)"><g transform="" style="fill: rgb(138, 163, 255);">
<path d="M250,0c138.077,0,250,111.93,250,250c0,138.077-111.923,250-250,250C111.93,500,0,388.077,0,250C0,111.93,111.93,0,250,0z"
	/>
</g></g><g transform="translate(465,31) scale(2.2142857142857,2.2142857142857)"><g transform="" style="fill: rgb(138, 163, 255);">
    <path d="M13.999-0.001v14H0.029H0v-3.431C0,4.729,6.267-0.001,13.999-0.001z"/>
</g></g><g transform="translate(496,31) scale(0.31,0.31)"><g transform="" style="fill: rgb(138, 163, 255);">
<rect width="100" height="100"/>
</g></g><g transform="translate(558,31) scale(2.2142857142857,2.2142857142857)"><g transform="" style="fill: rgb(138, 163, 255);">
    <path d="M-0.001,0l14,0c0,0-4.381,9.151-0.551,14C13.448,14-0.001,14.24-0.001,0z"/>
</g></g><g transform="translate(651,31) scale(0.31,0.31)"><g transform="" style="fill: rgb(138, 163, 255);">
<rect width="100" height="100"/>
</g></g><g transform="translate(248,62) scale(2.2142857142857,2.2142857142857)"><g transform="" style="fill: rgb(138, 163, 255);">
    <path d="M13.999-0.001v14H0.029H0v-3.431C0,4.729,6.267-0.001,13.999-0.001z"/>
</g></g><g transform="translate(279,62) scale(0.31,0.31)"><g transform="" style="fill: rgb(138, 163, 255);">
<rect width="100" height="100"/>
</g></g><g transform="translate(310,62) scale(2.2142857142857,2.2142857142857)"><g transform="" style="fill: rgb(138, 163, 255);">
    <path d="M0,14V0c0,0,9.15,4.38,14,0.55C14,0.55,14.24,14,0,14z"/>
</g></g><g transform="translate(434,62) scale(2.2142857142857,2.2142857142857)"><g transform="" style="fill: rgb(138, 163, 255);">
    <path d="M13.999,0v14c0,0-9.151-4.381-14-0.551C-0.001,13.449-0.242,0,13.999,0z"/>
</g></g><g transform="translate(465,62) scale(0.31,0.31)"><g transform="" style="fill: rgb(138, 163, 255);">
<rect width="100" height="100"/>
</g></g><g transform="translate(496,62) scale(2.2142857142857,2.2142857142857)"><g transform="" style="fill: rgb(138, 163, 255);">
    <path d="M0,14V0h13.971H14v3.43C14,9.27,7.732,14,0,14z"/>
</g></g><g transform="translate(589,62) scale(2.2142857142857,2.2142857142857)"><g transform="" style="fill: rgb(138, 163, 255);">
    <path d="M13.999-0.001v14H0.029H0v-3.431C0,4.729,6.267-0.001,13.999-0.001z"/>
</g></g><g transform="translate(620,62) scale(0.31,0.31)"><g transform="" style="fill: rgb(138, 163, 255);">
<rect width="100" height="100"/>
</g></g><g transform="translate(651,62) scale(0.31,0.31)"><g transform="" style="fill: rgb(138, 163, 255);">
<rect width="100" height="100"/>
</g></g><g transform="translate(682,62) scale(2.2142857142857,2.2142857142857)"><g transform="" style="fill: rgb(138, 163, 255);">
    <path d="M0,14V0c0,0,9.15,4.38,14,0.55C14,0.55,14.24,14,0,14z"/>
</g></g><g transform="translate(744,62) scale(2.2142857142857,2.2142857142857)"><g transform="" style="fill: rgb(138, 163, 255);">
    <path d="M14,14H0c0,0,4.38-9.15,0.55-14C0.55,0,14-0.24,14,14z"/>
</g></g><g transform="translate(248,93) scale(0.31,0.31)"><g transform="" style="fill: rgb(138, 163, 255);">
<rect width="100" height="100"/>
</g></g><g transform="translate(279,93) scale(0.31,0.31)"><g transform="" style="fill: rgb(138, 163, 255);">
<rect width="100" height="100"/>
</g></g><g transform="translate(465,93) scale(0.31,0.31)"><g transform="" style="fill: rgb(138, 163, 255);">
<rect width="100" height="100"/>
</g></g><g transform="translate(558,93) scale(2.2142857142857,2.2142857142857)"><g transform="" style="fill: rgb(138, 163, 255);">
    <path d="M13.999,0v14c0,0-9.151-4.381-14-0.551C-0.001,13.449-0.242,0,13.999,0z"/>
</g></g><g transform="translate(589,93) scale(2.2142857142857,2.2142857142857)"><g transform="" style="fill: rgb(138, 163, 255);">
    <path d="M0,14V0h13.971H14v3.43C14,9.27,7.732,14,0,14z"/>
</g></g><g transform="translate(651,93) scale(2.2142857142857,2.2142857142857)"><g transform="" style="fill: rgb(138, 163, 255);">
    <path d="M-0.001,0l14,0c0,0-4.381,9.151-0.551,14C13.448,14-0.001,14.24-0.001,0z"/>
</g></g><g transform="translate(744,93) scale(2.2142857142857,2.2142857142857)"><g transform="" style="fill: rgb(138, 163, 255);">
    <path d="M-0.001,0l14,0c0,0-4.381,9.151-0.551,14C13.448,14-0.001,14.24-0.001,0z"/>
</g></g><g transform="translate(248,124) scale(0.31,0.31)"><g transform="" style="fill: rgb(138, 163, 255);">
<rect width="100" height="100"/>
</g></g><g transform="translate(279,124) scale(0.31,0.31)"><g transform="" style="fill: rgb(138, 163, 255);">
<rect width="100" height="100"/>
</g></g><g transform="translate(310,124) scale(0.31,0.31)"><g transform="" style="fill: rgb(138, 163, 255);">
<rect width="100" height="100"/>
</g></g><g transform="translate(341,124) scale(2.2142857142857,2.2142857142857)"><g transform="" style="fill: rgb(138, 163, 255);">
    <path d="M13.999,13.999H0V0.028v-0.029h3.43C9.269-0.001,13.999,6.267,13.999,13.999z"/>
</g></g><g transform="translate(434,124) scale(2.2142857142857,2.2142857142857)"><g transform="" style="fill: rgb(138, 163, 255);">
    <path d="M13.999,0v14c0,0-9.151-4.381-14-0.551C-0.001,13.449-0.242,0,13.999,0z"/>
</g></g><g transform="translate(465,124) scale(0.31,0.31)"><g transform="" style="fill: rgb(138, 163, 255);">
<rect width="100" height="100"/>
</g></g><g transform="translate(496,124) scale(2.2142857142857,2.2142857142857)"><g transform="" style="fill: rgb(138, 163, 255);">
    <path d="M0,14V0c0,0,9.15,4.38,14,0.55C14,0.55,14.24,14,0,14z"/>
</g></g><g transform="translate(620,124) scale(0.062,0.062)"><g transform="" style="fill: rgb(138, 163, 255);">
<path d="M250,0c138.077,0,250,111.93,250,250c0,138.077-111.923,250-250,250C111.93,500,0,388.077,0,250C0,111.93,111.93,0,250,0z"
	/>
</g></g><g transform="translate(682,124) scale(2.2142857142857,2.2142857142857)"><g transform="" style="fill: rgb(138, 163, 255);">
    <path d="M14,14H0c0,0,4.38-9.15,0.55-14C0.55,0,14-0.24,14,14z"/>
</g></g><g transform="translate(248,155) scale(0.31,0.31)"><g transform="" style="fill: rgb(138, 163, 255);">
<rect width="100" height="100"/>
</g></g><g transform="translate(341,155) scale(2.2142857142857,2.2142857142857)"><g transform="" style="fill: rgb(138, 163, 255);">
        <path d="M0-0.001h14v13.97v0.029l-3.431,0.001C4.731,13.999,0,7.731,0-0.001z"/>
</g></g><g transform="translate(372,155) scale(0.31,0.31)"><g transform="" style="fill: rgb(138, 163, 255);">
<rect width="100" height="100"/>
</g></g><g transform="translate(403,155) scale(2.2142857142857,2.2142857142857)"><g transform="" style="fill: rgb(138, 163, 255);">
    <path d="M0,14V0c0,0,9.15,4.38,14,0.55C14,0.55,14.24,14,0,14z"/>
</g></g><g transform="translate(527,155) scale(0.062,0.062)"><g transform="" style="fill: rgb(138, 163, 255);">
<path d="M250,0c138.077,0,250,111.93,250,250c0,138.077-111.923,250-250,250C111.93,500,0,388.077,0,250C0,111.93,111.93,0,250,0z"
	/>
</g></g><g transform="translate(589,155) scale(0.062,0.062)"><g transform="" style="fill: rgb(138, 163, 255);">
<path d="M250,0c138.077,0,250,111.93,250,250c0,138.077-111.923,250-250,250C111.93,500,0,388.077,0,250C0,111.93,111.93,0,250,0z"
	/>
</g></g><g transform="translate(682,155) scale(0.31,0.31)"><g transform="" style="fill: rgb(138, 163, 255);">
<rect width="100" height="100"/>
</g></g><g transform="translate(713,155) scale(0.31,0.31)"><g transform="" style="fill: rgb(138, 163, 255);">
<rect width="100" height="100"/>
</g></g><g transform="translate(744,155) scale(2.2142857142857,2.2142857142857)"><g transform="" style="fill: rgb(138, 163, 255);">
    <path d="M13.999,13.999H0V0.028v-0.029h3.43C9.269-0.001,13.999,6.267,13.999,13.999z"/>
</g></g><g transform="translate(248,186) scale(0.31,0.31)"><g transform="" style="fill: rgb(138, 163, 255);">
<rect width="100" height="100"/>
</g></g><g transform="translate(310,186) scale(2.2142857142857,2.2142857142857)"><g transform="" style="fill: rgb(138, 163, 255);">
    <path d="M14,14H0c0,0,4.38-9.15,0.55-14C0.55,0,14-0.24,14,14z"/>
</g></g><g transform="translate(372,186) scale(2.2142857142857,2.2142857142857)"><g transform="" style="fill: rgb(138, 163, 255);">
    <path d="M-0.001,0l14,0c0,0-4.381,9.151-0.551,14C13.448,14-0.001,14.24-0.001,0z"/>
</g></g><g transform="translate(434,186) scale(0.062,0.062)"><g transform="" style="fill: rgb(138, 163, 255);">
<path d="M250,0c138.077,0,250,111.93,250,250c0,138.077-111.923,250-250,250C111.93,500,0,388.077,0,250C0,111.93,111.93,0,250,0z"
	/>
</g></g><g transform="translate(496,186) scale(2.2142857142857,2.2142857142857)"><g transform="" style="fill: rgb(138, 163, 255);">
    <path d="M14,14H0c0,0,4.38-9.15,0.55-14C0.55,0,14-0.24,14,14z"/>
</g></g><g transform="translate(558,186) scale(2.2142857142857,2.2142857142857)"><g transform="" style="fill: rgb(138, 163, 255);">
    <path d="M14,14H0c0,0,4.38-9.15,0.55-14C0.55,0,14-0.24,14,14z"/>
</g></g><g transform="translate(620,186) scale(2.2142857142857,2.2142857142857)"><g transform="" style="fill: rgb(138, 163, 255);">
    <path d="M14,14H0c0,0,4.38-9.15,0.55-14C0.55,0,14-0.24,14,14z"/>
</g></g><g transform="translate(682,186) scale(2.2142857142857,2.2142857142857)"><g transform="" style="fill: rgb(138, 163, 255);">
    <path d="M-0.001,0l14,0c0,0-4.381,9.151-0.551,14C13.448,14-0.001,14.24-0.001,0z"/>
</g></g><g transform="translate(744,186) scale(2.2142857142857,2.2142857142857)"><g transform="" style="fill: rgb(138, 163, 255);">
    <path d="M-0.001,0l14,0c0,0-4.381,9.151-0.551,14C13.448,14-0.001,14.24-0.001,0z"/>
</g></g><g transform="translate(248,217) scale(2.2142857142857,2.2142857142857)"><g transform="" style="fill: rgb(138, 163, 255);">
        <path d="M0-0.001h14v13.97v0.029l-3.431,0.001C4.731,13.999,0,7.731,0-0.001z"/>
</g></g><g transform="translate(279,217) scale(0.31,0.31)"><g transform="" style="fill: rgb(138, 163, 255);">
<rect width="100" height="100"/>
</g></g><g transform="translate(310,217) scale(0.31,0.31)"><g transform="" style="fill: rgb(138, 163, 255);">
<rect width="100" height="100"/>
</g></g><g transform="translate(496,217) scale(0.31,0.31)"><g transform="" style="fill: rgb(138, 163, 255);">
<rect width="100" height="100"/>
</g></g><g transform="translate(558,217) scale(2.2142857142857,2.2142857142857)"><g transform="" style="fill: rgb(138, 163, 255);">
        <path d="M0-0.001h14v13.97v0.029l-3.431,0.001C4.731,13.999,0,7.731,0-0.001z"/>
</g></g><g transform="translate(589,217) scale(0.31,0.31)"><g transform="" style="fill: rgb(138, 163, 255);">
<rect width="100" height="100"/>
</g></g><g transform="translate(620,217) scale(0.31,0.31)"><g transform="" style="fill: rgb(138, 163, 255);">
<rect width="100" height="100"/>
</g></g><g transform="translate(651,217) scale(2.2142857142857,2.2142857142857)"><g transform="" style="fill: rgb(138, 163, 255);">
    <path d="M0,14V0c0,0,9.15,4.38,14,0.55C14,0.55,14.24,14,0,14z"/>
</g></g><g transform="translate(713,217) scale(2.2142857142857,2.2142857142857)"><g transform="" style="fill: rgb(138, 163, 255);">
    <path d="M14,14H0c0,0,4.38-9.15,0.55-14C0.55,0,14-0.24,14,14z"/>
</g></g><g transform="translate(0,248) scale(0.062,0.062)"><g transform="" style="fill: rgb(138, 163, 255);">
<path d="M250,0c138.077,0,250,111.93,250,250c0,138.077-111.923,250-250,250C111.93,500,0,388.077,0,250C0,111.93,111.93,0,250,0z"
	/>
</g></g><g transform="translate(62,248) scale(2.2142857142857,2.2142857142857)"><g transform="" style="fill: rgb(138, 163, 255);">
    <path d="M13.999-0.001v14H0.029H0v-3.431C0,4.729,6.267-0.001,13.999-0.001z"/>
</g></g><g transform="translate(93,248) scale(0.31,0.31)"><g transform="" style="fill: rgb(138, 163, 255);">
<rect width="100" height="100"/>
</g></g><g transform="translate(124,248) scale(0.31,0.31)"><g transform="" style="fill: rgb(138, 163, 255);">
<rect width="100" height="100"/>
</g></g><g transform="translate(155,248) scale(0.31,0.31)"><g transform="" style="fill: rgb(138, 163, 255);">
<rect width="100" height="100"/>
</g></g><g transform="translate(186,248) scale(2.2142857142857,2.2142857142857)"><g transform="" style="fill: rgb(138, 163, 255);">
    <path d="M0,14V0c0,0,9.15,4.38,14,0.55C14,0.55,14.24,14,0,14z"/>
</g></g><g transform="translate(279,248) scale(0.31,0.31)"><g transform="" style="fill: rgb(138, 163, 255);">
<rect width="100" height="100"/>
</g></g><g transform="translate(310,248) scale(0.31,0.31)"><g transform="" style="fill: rgb(138, 163, 255);">
<rect width="100" height="100"/>
</g></g><g transform="translate(372,248) scale(2.2142857142857,2.2142857142857)"><g transform="" style="fill: rgb(138, 163, 255);">
    <path d="M13.999-0.001v14H0.029H0v-3.431C0,4.729,6.267-0.001,13.999-0.001z"/>
</g></g><g transform="translate(403,248) scale(2.2142857142857,2.2142857142857)"><g transform="" style="fill: rgb(138, 163, 255);">
    <path d="M13.999,13.999H0V0.028v-0.029h3.43C9.269-0.001,13.999,6.267,13.999,13.999z"/>
</g></g><g transform="translate(496,248) scale(0.31,0.31)"><g transform="" style="fill: rgb(138, 163, 255);">
<rect width="100" height="100"/>
</g></g><g transform="translate(527,248) scale(2.2142857142857,2.2142857142857)"><g transform="" style="fill: rgb(138, 163, 255);">
    <path d="M13.999,13.999H0V0.028v-0.029h3.43C9.269-0.001,13.999,6.267,13.999,13.999z"/>
</g></g><g transform="translate(589,248) scale(0.31,0.31)"><g transform="" style="fill: rgb(138, 163, 255);">
<rect width="100" height="100"/>
</g></g><g transform="translate(682,248) scale(2.2142857142857,2.2142857142857)"><g transform="" style="fill: rgb(138, 163, 255);">
    <path d="M13.999,0v14c0,0-9.151-4.381-14-0.551C-0.001,13.449-0.242,0,13.999,0z"/>
</g></g><g transform="translate(713,248) scale(0.31,0.31)"><g transform="" style="fill: rgb(138, 163, 255);">
<rect width="100" height="100"/>
</g></g><g transform="translate(744,248) scale(2.2142857142857,2.2142857142857)"><g transform="" style="fill: rgb(138, 163, 255);">
    <path d="M0,14V0c0,0,9.15,4.38,14,0.55C14,0.55,14.24,14,0,14z"/>
</g></g><g transform="translate(806,248) scale(2.2142857142857,2.2142857142857)"><g transform="" style="fill: rgb(138, 163, 255);">
    <path d="M13.999-0.001v14H0.029H0v-3.431C0,4.729,6.267-0.001,13.999-0.001z"/>
</g></g><g transform="translate(837,248) scale(0.31,0.31)"><g transform="" style="fill: rgb(138, 163, 255);">
<rect width="100" height="100"/>
</g></g><g transform="translate(868,248) scale(0.31,0.31)"><g transform="" style="fill: rgb(138, 163, 255);">
<rect width="100" height="100"/>
</g></g><g transform="translate(899,248) scale(0.31,0.31)"><g transform="" style="fill: rgb(138, 163, 255);">
<rect width="100" height="100"/>
</g></g><g transform="translate(930,248) scale(2.2142857142857,2.2142857142857)"><g transform="" style="fill: rgb(138, 163, 255);">
    <path d="M13.999,13.999H0V0.028v-0.029h3.43C9.269-0.001,13.999,6.267,13.999,13.999z"/>
</g></g><g transform="translate(31,279) scale(2.2142857142857,2.2142857142857)"><g transform="" style="fill: rgb(138, 163, 255);">
    <path d="M13.999,0v14c0,0-9.151-4.381-14-0.551C-0.001,13.449-0.242,0,13.999,0z"/>
</g></g><g transform="translate(62,279) scale(2.2142857142857,2.2142857142857)"><g transform="" style="fill: rgb(138, 163, 255);">
    <path d="M0,14V0h13.971H14v3.43C14,9.27,7.732,14,0,14z"/>
</g></g><g transform="translate(155,279) scale(2.2142857142857,2.2142857142857)"><g transform="" style="fill: rgb(138, 163, 255);">
    <path d="M-0.001,0l14,0c0,0-4.381,9.151-0.551,14C13.448,14-0.001,14.24-0.001,0z"/>
</g></g><g transform="translate(217,279) scale(0.062,0.062)"><g transform="" style="fill: rgb(138, 163, 255);">
<path d="M250,0c138.077,0,250,111.93,250,250c0,138.077-111.923,250-250,250C111.93,500,0,388.077,0,250C0,111.93,111.93,0,250,0z"
	/>
</g></g><g transform="translate(279,279) scale(2.2142857142857,2.2142857142857)"><g transform="" style="fill: rgb(138, 163, 255);">
        <path d="M0-0.001h14v13.97v0.029l-3.431,0.001C4.731,13.999,0,7.731,0-0.001z"/>
</g></g><g transform="translate(310,279) scale(0.31,0.31)"><g transform="" style="fill: rgb(138, 163, 255);">
<rect width="100" height="100"/>
</g></g><g transform="translate(372,279) scale(0.31,0.31)"><g transform="" style="fill: rgb(138, 163, 255);">
<rect width="100" height="100"/>
</g></g><g transform="translate(403,279) scale(0.31,0.31)"><g transform="" style="fill: rgb(138, 163, 255);">
<rect width="100" height="100"/>
</g></g><g transform="translate(496,279) scale(0.31,0.31)"><g transform="" style="fill: rgb(138, 163, 255);">
<rect width="100" height="100"/>
</g></g><g transform="translate(527,279) scale(0.31,0.31)"><g transform="" style="fill: rgb(138, 163, 255);">
<rect width="100" height="100"/>
</g></g><g transform="translate(589,279) scale(2.2142857142857,2.2142857142857)"><g transform="" style="fill: rgb(138, 163, 255);">
    <path d="M-0.001,0l14,0c0,0-4.381,9.151-0.551,14C13.448,14-0.001,14.24-0.001,0z"/>
</g></g><g transform="translate(713,279) scale(2.2142857142857,2.2142857142857)"><g transform="" style="fill: rgb(138, 163, 255);">
    <path d="M-0.001,0l14,0c0,0-4.381,9.151-0.551,14C13.448,14-0.001,14.24-0.001,0z"/>
</g></g><g transform="translate(806,279) scale(2.2142857142857,2.2142857142857)"><g transform="" style="fill: rgb(138, 163, 255);">
        <path d="M0-0.001h14v13.97v0.029l-3.431,0.001C4.731,13.999,0,7.731,0-0.001z"/>
</g></g><g transform="translate(837,279) scale(2.2142857142857,2.2142857142857)"><g transform="" style="fill: rgb(138, 163, 255);">
    <path d="M0,14V0h13.971H14v3.43C14,9.27,7.732,14,0,14z"/>
</g></g><g transform="translate(899,279) scale(2.2142857142857,2.2142857142857)"><g transform="" style="fill: rgb(138, 163, 255);">
        <path d="M0-0.001h14v13.97v0.029l-3.431,0.001C4.731,13.999,0,7.731,0-0.001z"/>
</g></g><g transform="translate(930,279) scale(0.31,0.31)"><g transform="" style="fill: rgb(138, 163, 255);">
<rect width="100" height="100"/>
</g></g><g transform="translate(992,279) scale(0.062,0.062)"><g transform="" style="fill: rgb(138, 163, 255);">
<path d="M250,0c138.077,0,250,111.93,250,250c0,138.077-111.923,250-250,250C111.93,500,0,388.077,0,250C0,111.93,111.93,0,250,0z"
	/>
</g></g><g transform="translate(0,310) scale(2.2142857142857,2.2142857142857)"><g transform="" style="fill: rgb(138, 163, 255);">
    <path d="M14,14H0c0,0,4.38-9.15,0.55-14C0.55,0,14-0.24,14,14z"/>
</g></g><g transform="translate(93,310) scale(2.2142857142857,2.2142857142857)"><g transform="" style="fill: rgb(138, 163, 255);">
    <path d="M13.999,0v14c0,0-9.151-4.381-14-0.551C-0.001,13.449-0.242,0,13.999,0z"/>
</g></g><g transform="translate(124,310) scale(2.2142857142857,2.2142857142857)"><g transform="" style="fill: rgb(138, 163, 255);">
    <path d="M0,14V0c0,0,9.15,4.38,14,0.55C14,0.55,14.24,14,0,14z"/>
</g></g><g transform="translate(186,310) scale(0.062,0.062)"><g transform="" style="fill: rgb(138, 163, 255);">
<path d="M250,0c138.077,0,250,111.93,250,250c0,138.077-111.923,250-250,250C111.93,500,0,388.077,0,250C0,111.93,111.93,0,250,0z"
	/>
</g></g><g transform="translate(248,310) scale(2.2142857142857,2.2142857142857)"><g transform="" style="fill: rgb(138, 163, 255);">
    <path d="M14,14H0c0,0,4.38-9.15,0.55-14C0.55,0,14-0.24,14,14z"/>
</g></g><g transform="translate(310,310) scale(2.2142857142857,2.2142857142857)"><g transform="" style="fill: rgb(138, 163, 255);">
        <path d="M0-0.001h14v13.97v0.029l-3.431,0.001C4.731,13.999,0,7.731,0-0.001z"/>
</g></g><g transform="translate(341,310) scale(0.31,0.31)"><g transform="" style="fill: rgb(138, 163, 255);">
<rect width="100" height="100"/>
</g></g><g transform="translate(372,310) scale(0.31,0.31)"><g transform="" style="fill: rgb(138, 163, 255);">
<rect width="100" height="100"/>
</g></g><g transform="translate(403,310) scale(0.31,0.31)"><g transform="" style="fill: rgb(138, 163, 255);">
<rect width="100" height="100"/>
</g></g><g transform="translate(434,310) scale(0.31,0.31)"><g transform="" style="fill: rgb(138, 163, 255);">
<rect width="100" height="100"/>
</g></g><g transform="translate(465,310) scale(0.31,0.31)"><g transform="" style="fill: rgb(138, 163, 255);">
<rect width="100" height="100"/>
</g></g><g transform="translate(496,310) scale(0.31,0.31)"><g transform="" style="fill: rgb(138, 163, 255);">
<rect width="100" height="100"/>
</g></g><g transform="translate(527,310) scale(0.31,0.31)"><g transform="" style="fill: rgb(138, 163, 255);">
<rect width="100" height="100"/>
</g></g><g transform="translate(682,310) scale(0.062,0.062)"><g transform="" style="fill: rgb(138, 163, 255);">
<path d="M250,0c138.077,0,250,111.93,250,250c0,138.077-111.923,250-250,250C111.93,500,0,388.077,0,250C0,111.93,111.93,0,250,0z"
	/>
</g></g><g transform="translate(775,310) scale(0.062,0.062)"><g transform="" style="fill: rgb(138, 163, 255);">
<path d="M250,0c138.077,0,250,111.93,250,250c0,138.077-111.923,250-250,250C111.93,500,0,388.077,0,250C0,111.93,111.93,0,250,0z"
	/>
</g></g><g transform="translate(868,310) scale(2.2142857142857,2.2142857142857)"><g transform="" style="fill: rgb(138, 163, 255);">
    <path d="M14,14H0c0,0,4.38-9.15,0.55-14C0.55,0,14-0.24,14,14z"/>
</g></g><g transform="translate(930,310) scale(0.31,0.31)"><g transform="" style="fill: rgb(138, 163, 255);">
<rect width="100" height="100"/>
</g></g><g transform="translate(961,310) scale(2.2142857142857,2.2142857142857)"><g transform="" style="fill: rgb(138, 163, 255);">
    <path d="M13.999,13.999H0V0.028v-0.029h3.43C9.269-0.001,13.999,6.267,13.999,13.999z"/>
</g></g><g transform="translate(0,341) scale(2.2142857142857,2.2142857142857)"><g transform="" style="fill: rgb(138, 163, 255);">
        <path d="M0-0.001h14v13.97v0.029l-3.431,0.001C4.731,13.999,0,7.731,0-0.001z"/>
</g></g><g transform="translate(31,341) scale(2.2142857142857,2.2142857142857)"><g transform="" style="fill: rgb(138, 163, 255);">
    <path d="M0,14V0c0,0,9.15,4.38,14,0.55C14,0.55,14.24,14,0,14z"/>
</g></g><g transform="translate(217,341) scale(2.2142857142857,2.2142857142857)"><g transform="" style="fill: rgb(138, 163, 255);">
    <path d="M13.999-0.001v14H0.029H0v-3.431C0,4.729,6.267-0.001,13.999-0.001z"/>
</g></g><g transform="translate(248,341) scale(2.2142857142857,2.2142857142857)"><g transform="" style="fill: rgb(138, 163, 255);">
    <path d="M0,14V0h13.971H14v3.43C14,9.27,7.732,14,0,14z"/>
</g></g><g transform="translate(341,341) scale(0.31,0.31)"><g transform="" style="fill: rgb(138, 163, 255);">
<rect width="100" height="100"/>
</g></g><g transform="translate(372,341) scale(0.31,0.31)"><g transform="" style="fill: rgb(138, 163, 255);">
<rect width="100" height="100"/>
</g></g><g transform="translate(403,341) scale(2.2142857142857,2.2142857142857)"><g transform="" style="fill: rgb(138, 163, 255);">
    <path d="M0,14V0h13.971H14v3.43C14,9.27,7.732,14,0,14z"/>
</g></g><g transform="translate(496,341) scale(0.31,0.31)"><g transform="" style="fill: rgb(138, 163, 255);">
<rect width="100" height="100"/>
</g></g><g transform="translate(527,341) scale(0.31,0.31)"><g transform="" style="fill: rgb(138, 163, 255);">
<rect width="100" height="100"/>
</g></g><g transform="translate(558,341) scale(2.2142857142857,2.2142857142857)"><g transform="" style="fill: rgb(138, 163, 255);">
    <path d="M0,14V0c0,0,9.15,4.38,14,0.55C14,0.55,14.24,14,0,14z"/>
</g></g><g transform="translate(620,341) scale(2.2142857142857,2.2142857142857)"><g transform="" style="fill: rgb(138, 163, 255);">
    <path d="M14,14H0c0,0,4.38-9.15,0.55-14C0.55,0,14-0.24,14,14z"/>
</g></g><g transform="translate(744,341) scale(2.2142857142857,2.2142857142857)"><g transform="" style="fill: rgb(138, 163, 255);">
    <path d="M14,14H0c0,0,4.38-9.15,0.55-14C0.55,0,14-0.24,14,14z"/>
</g></g><g transform="translate(806,341) scale(0.062,0.062)"><g transform="" style="fill: rgb(138, 163, 255);">
<path d="M250,0c138.077,0,250,111.93,250,250c0,138.077-111.923,250-250,250C111.93,500,0,388.077,0,250C0,111.93,111.93,0,250,0z"
	/>
</g></g><g transform="translate(868,341) scale(2.2142857142857,2.2142857142857)"><g transform="" style="fill: rgb(138, 163, 255);">
        <path d="M0-0.001h14v13.97v0.029l-3.431,0.001C4.731,13.999,0,7.731,0-0.001z"/>
</g></g><g transform="translate(899,341) scale(0.31,0.31)"><g transform="" style="fill: rgb(138, 163, 255);">
<rect width="100" height="100"/>
</g></g><g transform="translate(930,341) scale(0.31,0.31)"><g transform="" style="fill: rgb(138, 163, 255);">
<rect width="100" height="100"/>
</g></g><g transform="translate(961,341) scale(2.2142857142857,2.2142857142857)"><g transform="" style="fill: rgb(138, 163, 255);">
    <path d="M0,14V0h13.971H14v3.43C14,9.27,7.732,14,0,14z"/>
</g></g><g transform="translate(62,372) scale(2.2142857142857,2.2142857142857)"><g transform="" style="fill: rgb(138, 163, 255);">
    <path d="M13.999,0v14c0,0-9.151-4.381-14-0.551C-0.001,13.449-0.242,0,13.999,0z"/>
</g></g><g transform="translate(93,372) scale(2.2142857142857,2.2142857142857)"><g transform="" style="fill: rgb(138, 163, 255);">
    <path d="M0,14V0c0,0,9.15,4.38,14,0.55C14,0.55,14.24,14,0,14z"/>
</g></g><g transform="translate(186,372) scale(2.2142857142857,2.2142857142857)"><g transform="" style="fill: rgb(138, 163, 255);">
    <path d="M13.999,0v14c0,0-9.151-4.381-14-0.551C-0.001,13.449-0.242,0,13.999,0z"/>
</g></g><g transform="translate(217,372) scale(2.2142857142857,2.2142857142857)"><g transform="" style="fill: rgb(138, 163, 255);">
    <path d="M0,14V0h13.971H14v3.43C14,9.27,7.732,14,0,14z"/>
</g></g><g transform="translate(279,372) scale(2.2142857142857,2.2142857142857)"><g transform="" style="fill: rgb(138, 163, 255);">
    <path d="M13.999-0.001v14H0.029H0v-3.431C0,4.729,6.267-0.001,13.999-0.001z"/>
</g></g><g transform="translate(310,372) scale(0.31,0.31)"><g transform="" style="fill: rgb(138, 163, 255);">
<rect width="100" height="100"/>
</g></g><g transform="translate(341,372) scale(2.2142857142857,2.2142857142857)"><g transform="" style="fill: rgb(138, 163, 255);">
    <path d="M0,14V0h13.971H14v3.43C14,9.27,7.732,14,0,14z"/>
</g></g><g transform="translate(434,372) scale(0.062,0.062)"><g transform="" style="fill: rgb(138, 163, 255);">
<path d="M250,0c138.077,0,250,111.93,250,250c0,138.077-111.923,250-250,250C111.93,500,0,388.077,0,250C0,111.93,111.93,0,250,0z"
	/>
</g></g><g transform="translate(496,372) scale(2.2142857142857,2.2142857142857)"><g transform="" style="fill: rgb(138, 163, 255);">
    <path d="M-0.001,0l14,0c0,0-4.381,9.151-0.551,14C13.448,14-0.001,14.24-0.001,0z"/>
</g></g><g transform="translate(620,372) scale(2.2142857142857,2.2142857142857)"><g transform="" style="fill: rgb(138, 163, 255);">
        <path d="M0-0.001h14v13.97v0.029l-3.431,0.001C4.731,13.999,0,7.731,0-0.001z"/>
</g></g><g transform="translate(651,372) scale(0.31,0.31)"><g transform="" style="fill: rgb(138, 163, 255);">
<rect width="100" height="100"/>
</g></g><g transform="translate(682,372) scale(0.31,0.31)"><g transform="" style="fill: rgb(138, 163, 255);">
<rect width="100" height="100"/>
</g></g><g transform="translate(713,372) scale(0.31,0.31)"><g transform="" style="fill: rgb(138, 163, 255);">
<rect width="100" height="100"/>
</g></g><g transform="translate(744,372) scale(0.31,0.31)"><g transform="" style="fill: rgb(138, 163, 255);">
<rect width="100" height="100"/>
</g></g><g transform="translate(899,372) scale(2.2142857142857,2.2142857142857)"><g transform="" style="fill: rgb(138, 163, 255);">
    <path d="M-0.001,0l14,0c0,0-4.381,9.151-0.551,14C13.448,14-0.001,14.24-0.001,0z"/>
</g></g><g transform="translate(992,372) scale(2.2142857142857,2.2142857142857)"><g transform="" style="fill: rgb(138, 163, 255);">
    <path d="M14,14H0c0,0,4.38-9.15,0.55-14C0.55,0,14-0.24,14,14z"/>
</g></g><g transform="translate(0,403) scale(2.2142857142857,2.2142857142857)"><g transform="" style="fill: rgb(138, 163, 255);">
    <path d="M14,14H0c0,0,4.38-9.15,0.55-14C0.55,0,14-0.24,14,14z"/>
</g></g><g transform="translate(124,403) scale(2.2142857142857,2.2142857142857)"><g transform="" style="fill: rgb(138, 163, 255);">
    <path d="M13.999,0v14c0,0-9.151-4.381-14-0.551C-0.001,13.449-0.242,0,13.999,0z"/>
</g></g><g transform="translate(155,403) scale(2.2142857142857,2.2142857142857)"><g transform="" style="fill: rgb(138, 163, 255);">
    <path d="M13.999,13.999H0V0.028v-0.029h3.43C9.269-0.001,13.999,6.267,13.999,13.999z"/>
</g></g><g transform="translate(279,403) scale(2.2142857142857,2.2142857142857)"><g transform="" style="fill: rgb(138, 163, 255);">
    <path d="M-0.001,0l14,0c0,0-4.381,9.151-0.551,14C13.448,14-0.001,14.24-0.001,0z"/>
</g></g><g transform="translate(403,403) scale(0.062,0.062)"><g transform="" style="fill: rgb(138, 163, 255);">
<path d="M250,0c138.077,0,250,111.93,250,250c0,138.077-111.923,250-250,250C111.93,500,0,388.077,0,250C0,111.93,111.93,0,250,0z"
	/>
</g></g><g transform="translate(465,403) scale(2.2142857142857,2.2142857142857)"><g transform="" style="fill: rgb(138, 163, 255);">
    <path d="M14,14H0c0,0,4.38-9.15,0.55-14C0.55,0,14-0.24,14,14z"/>
</g></g><g transform="translate(558,403) scale(2.2142857142857,2.2142857142857)"><g transform="" style="fill: rgb(138, 163, 255);">
    <path d="M14,14H0c0,0,4.38-9.15,0.55-14C0.55,0,14-0.24,14,14z"/>
</g></g><g transform="translate(651,403) scale(0.31,0.31)"><g transform="" style="fill: rgb(138, 163, 255);">
<rect width="100" height="100"/>
</g></g><g transform="translate(744,403) scale(0.31,0.31)"><g transform="" style="fill: rgb(138, 163, 255);">
<rect width="100" height="100"/>
</g></g><g transform="translate(806,403) scale(2.2142857142857,2.2142857142857)"><g transform="" style="fill: rgb(138, 163, 255);">
    <path d="M14,14H0c0,0,4.38-9.15,0.55-14C0.55,0,14-0.24,14,14z"/>
</g></g><g transform="translate(930,403) scale(2.2142857142857,2.2142857142857)"><g transform="" style="fill: rgb(138, 163, 255);">
    <path d="M13.999,0v14c0,0-9.151-4.381-14-0.551C-0.001,13.449-0.242,0,13.999,0z"/>
</g></g><g transform="translate(961,403) scale(0.31,0.31)"><g transform="" style="fill: rgb(138, 163, 255);">
<rect width="100" height="100"/>
</g></g><g transform="translate(992,403) scale(2.2142857142857,2.2142857142857)"><g transform="" style="fill: rgb(138, 163, 255);">
    <path d="M0,14V0h13.971H14v3.43C14,9.27,7.732,14,0,14z"/>
</g></g><g transform="translate(0,434) scale(2.2142857142857,2.2142857142857)"><g transform="" style="fill: rgb(138, 163, 255);">
        <path d="M0-0.001h14v13.97v0.029l-3.431,0.001C4.731,13.999,0,7.731,0-0.001z"/>
</g></g><g transform="translate(31,434) scale(0.31,0.31)"><g transform="" style="fill: rgb(138, 163, 255);">
<rect width="100" height="100"/>
</g></g><g transform="translate(62,434) scale(2.2142857142857,2.2142857142857)"><g transform="" style="fill: rgb(138, 163, 255);">
    <path d="M13.999,13.999H0V0.028v-0.029h3.43C9.269-0.001,13.999,6.267,13.999,13.999z"/>
</g></g><g transform="translate(155,434) scale(2.2142857142857,2.2142857142857)"><g transform="" style="fill: rgb(138, 163, 255);">
        <path d="M0-0.001h14v13.97v0.029l-3.431,0.001C4.731,13.999,0,7.731,0-0.001z"/>
</g></g><g transform="translate(186,434) scale(0.31,0.31)"><g transform="" style="fill: rgb(138, 163, 255);">
<rect width="100" height="100"/>
</g></g><g transform="translate(217,434) scale(0.31,0.31)"><g transform="" style="fill: rgb(138, 163, 255);">
<rect width="100" height="100"/>
</g></g><g transform="translate(248,434) scale(2.2142857142857,2.2142857142857)"><g transform="" style="fill: rgb(138, 163, 255);">
    <path d="M0,14V0c0,0,9.15,4.38,14,0.55C14,0.55,14.24,14,0,14z"/>
</g></g><g transform="translate(372,434) scale(0.062,0.062)"><g transform="" style="fill: rgb(138, 163, 255);">
<path d="M250,0c138.077,0,250,111.93,250,250c0,138.077-111.923,250-250,250C111.93,500,0,388.077,0,250C0,111.93,111.93,0,250,0z"
	/>
</g></g><g transform="translate(465,434) scale(0.31,0.31)"><g transform="" style="fill: rgb(138, 163, 255);">
<rect width="100" height="100"/>
</g></g><g transform="translate(496,434) scale(0.31,0.31)"><g transform="" style="fill: rgb(138, 163, 255);">
<rect width="100" height="100"/>
</g></g><g transform="translate(527,434) scale(0.31,0.31)"><g transform="" style="fill: rgb(138, 163, 255);">
<rect width="100" height="100"/>
</g></g><g transform="translate(558,434) scale(0.31,0.31)"><g transform="" style="fill: rgb(138, 163, 255);">
<rect width="100" height="100"/>
</g></g><g transform="translate(620,434) scale(2.2142857142857,2.2142857142857)"><g transform="" style="fill: rgb(138, 163, 255);">
    <path d="M13.999,0v14c0,0-9.151-4.381-14-0.551C-0.001,13.449-0.242,0,13.999,0z"/>
</g></g><g transform="translate(651,434) scale(0.31,0.31)"><g transform="" style="fill: rgb(138, 163, 255);">
<rect width="100" height="100"/>
</g></g><g transform="translate(744,434) scale(2.2142857142857,2.2142857142857)"><g transform="" style="fill: rgb(138, 163, 255);">
        <path d="M0-0.001h14v13.97v0.029l-3.431,0.001C4.731,13.999,0,7.731,0-0.001z"/>
</g></g><g transform="translate(775,434) scale(0.31,0.31)"><g transform="" style="fill: rgb(138, 163, 255);">
<rect width="100" height="100"/>
</g></g><g transform="translate(806,434) scale(0.31,0.31)"><g transform="" style="fill: rgb(138, 163, 255);">
<rect width="100" height="100"/>
</g></g><g transform="translate(868,434) scale(2.2142857142857,2.2142857142857)"><g transform="" style="fill: rgb(138, 163, 255);">
    <path d="M13.999,0v14c0,0-9.151-4.381-14-0.551C-0.001,13.449-0.242,0,13.999,0z"/>
</g></g><g transform="translate(899,434) scale(2.2142857142857,2.2142857142857)"><g transform="" style="fill: rgb(138, 163, 255);">
    <path d="M13.999,13.999H0V0.028v-0.029h3.43C9.269-0.001,13.999,6.267,13.999,13.999z"/>
</g></g><g transform="translate(961,434) scale(2.2142857142857,2.2142857142857)"><g transform="" style="fill: rgb(138, 163, 255);">
    <path d="M-0.001,0l14,0c0,0-4.381,9.151-0.551,14C13.448,14-0.001,14.24-0.001,0z"/>
</g></g><g transform="translate(62,465) scale(2.2142857142857,2.2142857142857)"><g transform="" style="fill: rgb(138, 163, 255);">
        <path d="M0-0.001h14v13.97v0.029l-3.431,0.001C4.731,13.999,0,7.731,0-0.001z"/>
</g></g><g transform="translate(93,465) scale(2.2142857142857,2.2142857142857)"><g transform="" style="fill: rgb(138, 163, 255);">
    <path d="M0,14V0c0,0,9.15,4.38,14,0.55C14,0.55,14.24,14,0,14z"/>
</g></g><g transform="translate(217,465) scale(0.31,0.31)"><g transform="" style="fill: rgb(138, 163, 255);">
<rect width="100" height="100"/>
</g></g><g transform="translate(310,465) scale(2.2142857142857,2.2142857142857)"><g transform="" style="fill: rgb(138, 163, 255);">
    <path d="M13.999,0v14c0,0-9.151-4.381-14-0.551C-0.001,13.449-0.242,0,13.999,0z"/>
</g></g><g transform="translate(341,465) scale(2.2142857142857,2.2142857142857)"><g transform="" style="fill: rgb(138, 163, 255);">
    <path d="M0,14V0c0,0,9.15,4.38,14,0.55C14,0.55,14.24,14,0,14z"/>
</g></g><g transform="translate(403,465) scale(2.2142857142857,2.2142857142857)"><g transform="" style="fill: rgb(138, 163, 255);">
    <path d="M14,14H0c0,0,4.38-9.15,0.55-14C0.55,0,14-0.24,14,14z"/>
</g></g><g transform="translate(465,465) scale(0.31,0.31)"><g transform="" style="fill: rgb(138, 163, 255);">
<rect width="100" height="100"/>
</g></g><g transform="translate(558,465) scale(0.31,0.31)"><g transform="" style="fill: rgb(138, 163, 255);">
<rect width="100" height="100"/>
</g></g><g transform="translate(651,465) scale(2.2142857142857,2.2142857142857)"><g transform="" style="fill: rgb(138, 163, 255);">
        <path d="M0-0.001h14v13.97v0.029l-3.431,0.001C4.731,13.999,0,7.731,0-0.001z"/>
</g></g><g transform="translate(682,465) scale(0.31,0.31)"><g transform="" style="fill: rgb(138, 163, 255);">
<rect width="100" height="100"/>
</g></g><g transform="translate(713,465) scale(2.2142857142857,2.2142857142857)"><g transform="" style="fill: rgb(138, 163, 255);">
    <path d="M0,14V0c0,0,9.15,4.38,14,0.55C14,0.55,14.24,14,0,14z"/>
</g></g><g transform="translate(775,465) scale(0.31,0.31)"><g transform="" style="fill: rgb(138, 163, 255);">
<rect width="100" height="100"/>
</g></g><g transform="translate(806,465) scale(0.31,0.31)"><g transform="" style="fill: rgb(138, 163, 255);">
<rect width="100" height="100"/>
</g></g><g transform="translate(837,465) scale(2.2142857142857,2.2142857142857)"><g transform="" style="fill: rgb(138, 163, 255);">
    <path d="M13.999,13.999H0V0.028v-0.029h3.43C9.269-0.001,13.999,6.267,13.999,13.999z"/>
</g></g><g transform="translate(899,465) scale(2.2142857142857,2.2142857142857)"><g transform="" style="fill: rgb(138, 163, 255);">
        <path d="M0-0.001h14v13.97v0.029l-3.431,0.001C4.731,13.999,0,7.731,0-0.001z"/>
</g></g><g transform="translate(930,465) scale(2.2142857142857,2.2142857142857)"><g transform="" style="fill: rgb(138, 163, 255);">
    <path d="M0,14V0c0,0,9.15,4.38,14,0.55C14,0.55,14.24,14,0,14z"/>
</g></g><g transform="translate(0,496) scale(2.2142857142857,2.2142857142857)"><g transform="" style="fill: rgb(138, 163, 255);">
    <path d="M13.999,0v14c0,0-9.151-4.381-14-0.551C-0.001,13.449-0.242,0,13.999,0z"/>
</g></g><g transform="translate(31,496) scale(2.2142857142857,2.2142857142857)"><g transform="" style="fill: rgb(138, 163, 255);">
    <path d="M13.999,13.999H0V0.028v-0.029h3.43C9.269-0.001,13.999,6.267,13.999,13.999z"/>
</g></g><g transform="translate(124,496) scale(2.2142857142857,2.2142857142857)"><g transform="" style="fill: rgb(138, 163, 255);">
    <path d="M13.999-0.001v14H0.029H0v-3.431C0,4.729,6.267-0.001,13.999-0.001z"/>
</g></g><g transform="translate(155,496) scale(0.31,0.31)"><g transform="" style="fill: rgb(138, 163, 255);">
<rect width="100" height="100"/>
</g></g><g transform="translate(186,496) scale(0.31,0.31)"><g transform="" style="fill: rgb(138, 163, 255);">
<rect width="100" height="100"/>
</g></g><g transform="translate(217,496) scale(2.2142857142857,2.2142857142857)"><g transform="" style="fill: rgb(138, 163, 255);">
    <path d="M0,14V0h13.971H14v3.43C14,9.27,7.732,14,0,14z"/>
</g></g><g transform="translate(403,496) scale(0.31,0.31)"><g transform="" style="fill: rgb(138, 163, 255);">
<rect width="100" height="100"/>
</g></g><g transform="translate(465,496) scale(2.2142857142857,2.2142857142857)"><g transform="" style="fill: rgb(138, 163, 255);">
    <path d="M-0.001,0l14,0c0,0-4.381,9.151-0.551,14C13.448,14-0.001,14.24-0.001,0z"/>
</g></g><g transform="translate(527,496) scale(2.2142857142857,2.2142857142857)"><g transform="" style="fill: rgb(138, 163, 255);">
    <path d="M13.999,0v14c0,0-9.151-4.381-14-0.551C-0.001,13.449-0.242,0,13.999,0z"/>
</g></g><g transform="translate(558,496) scale(0.31,0.31)"><g transform="" style="fill: rgb(138, 163, 255);">
<rect width="100" height="100"/>
</g></g><g transform="translate(620,496) scale(2.2142857142857,2.2142857142857)"><g transform="" style="fill: rgb(138, 163, 255);">
    <path d="M14,14H0c0,0,4.38-9.15,0.55-14C0.55,0,14-0.24,14,14z"/>
</g></g><g transform="translate(682,496) scale(2.2142857142857,2.2142857142857)"><g transform="" style="fill: rgb(138, 163, 255);">
    <path d="M-0.001,0l14,0c0,0-4.381,9.151-0.551,14C13.448,14-0.001,14.24-0.001,0z"/>
</g></g><g transform="translate(744,496) scale(2.2142857142857,2.2142857142857)"><g transform="" style="fill: rgb(138, 163, 255);">
    <path d="M13.999,0v14c0,0-9.151-4.381-14-0.551C-0.001,13.449-0.242,0,13.999,0z"/>
</g></g><g transform="translate(775,496) scale(2.2142857142857,2.2142857142857)"><g transform="" style="fill: rgb(138, 163, 255);">
    <path d="M0,14V0h13.971H14v3.43C14,9.27,7.732,14,0,14z"/>
</g></g><g transform="translate(837,496) scale(0.31,0.31)"><g transform="" style="fill: rgb(138, 163, 255);">
<rect width="100" height="100"/>
</g></g><g transform="translate(868,496) scale(2.2142857142857,2.2142857142857)"><g transform="" style="fill: rgb(138, 163, 255);">
    <path d="M0,14V0c0,0,9.15,4.38,14,0.55C14,0.55,14.24,14,0,14z"/>
</g></g><g transform="translate(992,496) scale(2.2142857142857,2.2142857142857)"><g transform="" style="fill: rgb(138, 163, 255);">
    <path d="M14,14H0c0,0,4.38-9.15,0.55-14C0.55,0,14-0.24,14,14z"/>
</g></g><g transform="translate(31,527) scale(2.2142857142857,2.2142857142857)"><g transform="" style="fill: rgb(138, 163, 255);">
        <path d="M0-0.001h14v13.97v0.029l-3.431,0.001C4.731,13.999,0,7.731,0-0.001z"/>
</g></g><g transform="translate(62,527) scale(2.2142857142857,2.2142857142857)"><g transform="" style="fill: rgb(138, 163, 255);">
    <path d="M0,14V0c0,0,9.15,4.38,14,0.55C14,0.55,14.24,14,0,14z"/>
</g></g><g transform="translate(124,527) scale(2.2142857142857,2.2142857142857)"><g transform="" style="fill: rgb(138, 163, 255);">
    <path d="M-0.001,0l14,0c0,0-4.381,9.151-0.551,14C13.448,14-0.001,14.24-0.001,0z"/>
</g></g><g transform="translate(248,527) scale(2.2142857142857,2.2142857142857)"><g transform="" style="fill: rgb(138, 163, 255);">
    <path d="M13.999-0.001v14H0.029H0v-3.431C0,4.729,6.267-0.001,13.999-0.001z"/>
</g></g><g transform="translate(279,527) scale(2.2142857142857,2.2142857142857)"><g transform="" style="fill: rgb(138, 163, 255);">
    <path d="M0,14V0c0,0,9.15,4.38,14,0.55C14,0.55,14.24,14,0,14z"/>
</g></g><g transform="translate(372,527) scale(2.2142857142857,2.2142857142857)"><g transform="" style="fill: rgb(138, 163, 255);">
    <path d="M13.999,0v14c0,0-9.151-4.381-14-0.551C-0.001,13.449-0.242,0,13.999,0z"/>
</g></g><g transform="translate(403,527) scale(0.31,0.31)"><g transform="" style="fill: rgb(138, 163, 255);">
<rect width="100" height="100"/>
</g></g><g transform="translate(434,527) scale(2.2142857142857,2.2142857142857)"><g transform="" style="fill: rgb(138, 163, 255);">
    <path d="M13.999,13.999H0V0.028v-0.029h3.43C9.269-0.001,13.999,6.267,13.999,13.999z"/>
</g></g><g transform="translate(496,527) scale(0.062,0.062)"><g transform="" style="fill: rgb(138, 163, 255);">
<path d="M250,0c138.077,0,250,111.93,250,250c0,138.077-111.923,250-250,250C111.93,500,0,388.077,0,250C0,111.93,111.93,0,250,0z"
	/>
</g></g><g transform="translate(558,527) scale(0.31,0.31)"><g transform="" style="fill: rgb(138, 163, 255);">
<rect width="100" height="100"/>
</g></g><g transform="translate(589,527) scale(0.31,0.31)"><g transform="" style="fill: rgb(138, 163, 255);">
<rect width="100" height="100"/>
</g></g><g transform="translate(620,527) scale(0.31,0.31)"><g transform="" style="fill: rgb(138, 163, 255);">
<rect width="100" height="100"/>
</g></g><g transform="translate(651,527) scale(2.2142857142857,2.2142857142857)"><g transform="" style="fill: rgb(138, 163, 255);">
    <path d="M13.999,13.999H0V0.028v-0.029h3.43C9.269-0.001,13.999,6.267,13.999,13.999z"/>
</g></g><g transform="translate(713,527) scale(0.062,0.062)"><g transform="" style="fill: rgb(138, 163, 255);">
<path d="M250,0c138.077,0,250,111.93,250,250c0,138.077-111.923,250-250,250C111.93,500,0,388.077,0,250C0,111.93,111.93,0,250,0z"
	/>
</g></g><g transform="translate(806,527) scale(2.2142857142857,2.2142857142857)"><g transform="" style="fill: rgb(138, 163, 255);">
    <path d="M13.999-0.001v14H0.029H0v-3.431C0,4.729,6.267-0.001,13.999-0.001z"/>
</g></g><g transform="translate(837,527) scale(0.31,0.31)"><g transform="" style="fill: rgb(138, 163, 255);">
<rect width="100" height="100"/>
</g></g><g transform="translate(899,527) scale(2.2142857142857,2.2142857142857)"><g transform="" style="fill: rgb(138, 163, 255);">
    <path d="M13.999,0v14c0,0-9.151-4.381-14-0.551C-0.001,13.449-0.242,0,13.999,0z"/>
</g></g><g transform="translate(930,527) scale(0.31,0.31)"><g transform="" style="fill: rgb(138, 163, 255);">
<rect width="100" height="100"/>
</g></g><g transform="translate(961,527) scale(0.31,0.31)"><g transform="" style="fill: rgb(138, 163, 255);">
<rect width="100" height="100"/>
</g></g><g transform="translate(992,527) scale(2.2142857142857,2.2142857142857)"><g transform="" style="fill: rgb(138, 163, 255);">
    <path d="M0,14V0h13.971H14v3.43C14,9.27,7.732,14,0,14z"/>
</g></g><g transform="translate(93,558) scale(2.2142857142857,2.2142857142857)"><g transform="" style="fill: rgb(138, 163, 255);">
    <path d="M14,14H0c0,0,4.38-9.15,0.55-14C0.55,0,14-0.24,14,14z"/>
</g></g><g transform="translate(186,558) scale(0.062,0.062)"><g transform="" style="fill: rgb(138, 163, 255);">
<path d="M250,0c138.077,0,250,111.93,250,250c0,138.077-111.923,250-250,250C111.93,500,0,388.077,0,250C0,111.93,111.93,0,250,0z"
	/>
</g></g><g transform="translate(248,558) scale(0.31,0.31)"><g transform="" style="fill: rgb(138, 163, 255);">
<rect width="100" height="100"/>
</g></g><g transform="translate(310,558) scale(2.2142857142857,2.2142857142857)"><g transform="" style="fill: rgb(138, 163, 255);">
    <path d="M13.999,0v14c0,0-9.151-4.381-14-0.551C-0.001,13.449-0.242,0,13.999,0z"/>
</g></g><g transform="translate(341,558) scale(2.2142857142857,2.2142857142857)"><g transform="" style="fill: rgb(138, 163, 255);">
    <path d="M0,14V0c0,0,9.15,4.38,14,0.55C14,0.55,14.24,14,0,14z"/>
</g></g><g transform="translate(403,558) scale(0.31,0.31)"><g transform="" style="fill: rgb(138, 163, 255);">
<rect width="100" height="100"/>
</g></g><g transform="translate(434,558) scale(0.31,0.31)"><g transform="" style="fill: rgb(138, 163, 255);">
<rect width="100" height="100"/>
</g></g><g transform="translate(465,558) scale(2.2142857142857,2.2142857142857)"><g transform="" style="fill: rgb(138, 163, 255);">
    <path d="M0,14V0c0,0,9.15,4.38,14,0.55C14,0.55,14.24,14,0,14z"/>
</g></g><g transform="translate(558,558) scale(2.2142857142857,2.2142857142857)"><g transform="" style="fill: rgb(138, 163, 255);">
    <path d="M-0.001,0l14,0c0,0-4.381,9.151-0.551,14C13.448,14-0.001,14.24-0.001,0z"/>
</g></g><g transform="translate(620,558) scale(2.2142857142857,2.2142857142857)"><g transform="" style="fill: rgb(138, 163, 255);">
        <path d="M0-0.001h14v13.97v0.029l-3.431,0.001C4.731,13.999,0,7.731,0-0.001z"/>
</g></g><g transform="translate(651,558) scale(0.31,0.31)"><g transform="" style="fill: rgb(138, 163, 255);">
<rect width="100" height="100"/>
</g></g><g transform="translate(775,558) scale(2.2142857142857,2.2142857142857)"><g transform="" style="fill: rgb(138, 163, 255);">
    <path d="M13.999,0v14c0,0-9.151-4.381-14-0.551C-0.001,13.449-0.242,0,13.999,0z"/>
</g></g><g transform="translate(806,558) scale(0.31,0.31)"><g transform="" style="fill: rgb(138, 163, 255);">
<rect width="100" height="100"/>
</g></g><g transform="translate(837,558) scale(0.31,0.31)"><g transform="" style="fill: rgb(138, 163, 255);">
<rect width="100" height="100"/>
</g></g><g transform="translate(868,558) scale(2.2142857142857,2.2142857142857)"><g transform="" style="fill: rgb(138, 163, 255);">
    <path d="M13.999,13.999H0V0.028v-0.029h3.43C9.269-0.001,13.999,6.267,13.999,13.999z"/>
</g></g><g transform="translate(930,558) scale(0.31,0.31)"><g transform="" style="fill: rgb(138, 163, 255);">
<rect width="100" height="100"/>
</g></g><g transform="translate(961,558) scale(2.2142857142857,2.2142857142857)"><g transform="" style="fill: rgb(138, 163, 255);">
    <path d="M0,14V0h13.971H14v3.43C14,9.27,7.732,14,0,14z"/>
</g></g><g transform="translate(0,589) scale(0.062,0.062)"><g transform="" style="fill: rgb(138, 163, 255);">
<path d="M250,0c138.077,0,250,111.93,250,250c0,138.077-111.923,250-250,250C111.93,500,0,388.077,0,250C0,111.93,111.93,0,250,0z"
	/>
</g></g><g transform="translate(93,589) scale(2.2142857142857,2.2142857142857)"><g transform="" style="fill: rgb(138, 163, 255);">
    <path d="M-0.001,0l14,0c0,0-4.381,9.151-0.551,14C13.448,14-0.001,14.24-0.001,0z"/>
</g></g><g transform="translate(155,589) scale(2.2142857142857,2.2142857142857)"><g transform="" style="fill: rgb(138, 163, 255);">
    <path d="M14,14H0c0,0,4.38-9.15,0.55-14C0.55,0,14-0.24,14,14z"/>
</g></g><g transform="translate(248,589) scale(0.31,0.31)"><g transform="" style="fill: rgb(138, 163, 255);">
<rect width="100" height="100"/>
</g></g><g transform="translate(403,589) scale(2.2142857142857,2.2142857142857)"><g transform="" style="fill: rgb(138, 163, 255);">
    <path d="M-0.001,0l14,0c0,0-4.381,9.151-0.551,14C13.448,14-0.001,14.24-0.001,0z"/>
</g></g><g transform="translate(496,589) scale(0.062,0.062)"><g transform="" style="fill: rgb(138, 163, 255);">
<path d="M250,0c138.077,0,250,111.93,250,250c0,138.077-111.923,250-250,250C111.93,500,0,388.077,0,250C0,111.93,111.93,0,250,0z"
	/>
</g></g><g transform="translate(589,589) scale(0.062,0.062)"><g transform="" style="fill: rgb(138, 163, 255);">
<path d="M250,0c138.077,0,250,111.93,250,250c0,138.077-111.923,250-250,250C111.93,500,0,388.077,0,250C0,111.93,111.93,0,250,0z"
	/>
</g></g><g transform="translate(651,589) scale(0.31,0.31)"><g transform="" style="fill: rgb(138, 163, 255);">
<rect width="100" height="100"/>
</g></g><g transform="translate(682,589) scale(0.31,0.31)"><g transform="" style="fill: rgb(138, 163, 255);">
<rect width="100" height="100"/>
</g></g><g transform="translate(713,589) scale(0.31,0.31)"><g transform="" style="fill: rgb(138, 163, 255);">
<rect width="100" height="100"/>
</g></g><g transform="translate(744,589) scale(2.2142857142857,2.2142857142857)"><g transform="" style="fill: rgb(138, 163, 255);">
    <path d="M13.999,13.999H0V0.028v-0.029h3.43C9.269-0.001,13.999,6.267,13.999,13.999z"/>
</g></g><g transform="translate(806,589) scale(2.2142857142857,2.2142857142857)"><g transform="" style="fill: rgb(138, 163, 255);">
        <path d="M0-0.001h14v13.97v0.029l-3.431,0.001C4.731,13.999,0,7.731,0-0.001z"/>
</g></g><g transform="translate(837,589) scale(0.31,0.31)"><g transform="" style="fill: rgb(138, 163, 255);">
<rect width="100" height="100"/>
</g></g><g transform="translate(868,589) scale(0.31,0.31)"><g transform="" style="fill: rgb(138, 163, 255);">
<rect width="100" height="100"/>
</g></g><g transform="translate(899,589) scale(0.31,0.31)"><g transform="" style="fill: rgb(138, 163, 255);">
<rect width="100" height="100"/>
</g></g><g transform="translate(930,589) scale(2.2142857142857,2.2142857142857)"><g transform="" style="fill: rgb(138, 163, 255);">
    <path d="M0,14V0h13.971H14v3.43C14,9.27,7.732,14,0,14z"/>
</g></g><g transform="translate(155,620) scale(2.2142857142857,2.2142857142857)"><g transform="" style="fill: rgb(138, 163, 255);">
        <path d="M0-0.001h14v13.97v0.029l-3.431,0.001C4.731,13.999,0,7.731,0-0.001z"/>
</g></g><g transform="translate(186,620) scale(0.31,0.31)"><g transform="" style="fill: rgb(138, 163, 255);">
<rect width="100" height="100"/>
</g></g><g transform="translate(217,620) scale(0.31,0.31)"><g transform="" style="fill: rgb(138, 163, 255);">
<rect width="100" height="100"/>
</g></g><g transform="translate(248,620) scale(2.2142857142857,2.2142857142857)"><g transform="" style="fill: rgb(138, 163, 255);">
    <path d="M0,14V0h13.971H14v3.43C14,9.27,7.732,14,0,14z"/>
</g></g><g transform="translate(372,620) scale(2.2142857142857,2.2142857142857)"><g transform="" style="fill: rgb(138, 163, 255);">
    <path d="M14,14H0c0,0,4.38-9.15,0.55-14C0.55,0,14-0.24,14,14z"/>
</g></g><g transform="translate(434,620) scale(2.2142857142857,2.2142857142857)"><g transform="" style="fill: rgb(138, 163, 255);">
    <path d="M13.999,0v14c0,0-9.151-4.381-14-0.551C-0.001,13.449-0.242,0,13.999,0z"/>
</g></g><g transform="translate(465,620) scale(2.2142857142857,2.2142857142857)"><g transform="" style="fill: rgb(138, 163, 255);">
    <path d="M13.999,13.999H0V0.028v-0.029h3.43C9.269-0.001,13.999,6.267,13.999,13.999z"/>
</g></g><g transform="translate(558,620) scale(0.062,0.062)"><g transform="" style="fill: rgb(138, 163, 255);">
<path d="M250,0c138.077,0,250,111.93,250,250c0,138.077-111.923,250-250,250C111.93,500,0,388.077,0,250C0,111.93,111.93,0,250,0z"
	/>
</g></g><g transform="translate(651,620) scale(2.2142857142857,2.2142857142857)"><g transform="" style="fill: rgb(138, 163, 255);">
    <path d="M-0.001,0l14,0c0,0-4.381,9.151-0.551,14C13.448,14-0.001,14.24-0.001,0z"/>
</g></g><g transform="translate(744,620) scale(2.2142857142857,2.2142857142857)"><g transform="" style="fill: rgb(138, 163, 255);">
        <path d="M0-0.001h14v13.97v0.029l-3.431,0.001C4.731,13.999,0,7.731,0-0.001z"/>
</g></g><g transform="translate(775,620) scale(2.2142857142857,2.2142857142857)"><g transform="" style="fill: rgb(138, 163, 255);">
    <path d="M13.999,13.999H0V0.028v-0.029h3.43C9.269-0.001,13.999,6.267,13.999,13.999z"/>
</g></g><g transform="translate(837,620) scale(2.2142857142857,2.2142857142857)"><g transform="" style="fill: rgb(138, 163, 255);">
    <path d="M-0.001,0l14,0c0,0-4.381,9.151-0.551,14C13.448,14-0.001,14.24-0.001,0z"/>
</g></g><g transform="translate(899,620) scale(2.2142857142857,2.2142857142857)"><g transform="" style="fill: rgb(138, 163, 255);">
    <path d="M-0.001,0l14,0c0,0-4.381,9.151-0.551,14C13.448,14-0.001,14.24-0.001,0z"/>
</g></g><g transform="translate(961,620) scale(2.2142857142857,2.2142857142857)"><g transform="" style="fill: rgb(138, 163, 255);">
    <path d="M13.999,0v14c0,0-9.151-4.381-14-0.551C-0.001,13.449-0.242,0,13.999,0z"/>
</g></g><g transform="translate(992,620) scale(2.2142857142857,2.2142857142857)"><g transform="" style="fill: rgb(138, 163, 255);">
    <path d="M13.999,13.999H0V0.028v-0.029h3.43C9.269-0.001,13.999,6.267,13.999,13.999z"/>
</g></g><g transform="translate(0,651) scale(2.2142857142857,2.2142857142857)"><g transform="" style="fill: rgb(138, 163, 255);">
    <path d="M13.999-0.001v14H0.029H0v-3.431C0,4.729,6.267-0.001,13.999-0.001z"/>
</g></g><g transform="translate(31,651) scale(0.31,0.31)"><g transform="" style="fill: rgb(138, 163, 255);">
<rect width="100" height="100"/>
</g></g><g transform="translate(62,651) scale(2.2142857142857,2.2142857142857)"><g transform="" style="fill: rgb(138, 163, 255);">
    <path d="M0,14V0c0,0,9.15,4.38,14,0.55C14,0.55,14.24,14,0,14z"/>
</g></g><g transform="translate(124,651) scale(0.062,0.062)"><g transform="" style="fill: rgb(138, 163, 255);">
<path d="M250,0c138.077,0,250,111.93,250,250c0,138.077-111.923,250-250,250C111.93,500,0,388.077,0,250C0,111.93,111.93,0,250,0z"
	/>
</g></g><g transform="translate(279,651) scale(2.2142857142857,2.2142857142857)"><g transform="" style="fill: rgb(138, 163, 255);">
    <path d="M14,14H0c0,0,4.38-9.15,0.55-14C0.55,0,14-0.24,14,14z"/>
</g></g><g transform="translate(341,651) scale(2.2142857142857,2.2142857142857)"><g transform="" style="fill: rgb(138, 163, 255);">
    <path d="M13.999,0v14c0,0-9.151-4.381-14-0.551C-0.001,13.449-0.242,0,13.999,0z"/>
</g></g><g transform="translate(372,651) scale(2.2142857142857,2.2142857142857)"><g transform="" style="fill: rgb(138, 163, 255);">
    <path d="M0,14V0h13.971H14v3.43C14,9.27,7.732,14,0,14z"/>
</g></g><g transform="translate(465,651) scale(2.2142857142857,2.2142857142857)"><g transform="" style="fill: rgb(138, 163, 255);">
        <path d="M0-0.001h14v13.97v0.029l-3.431,0.001C4.731,13.999,0,7.731,0-0.001z"/>
</g></g><g transform="translate(496,651) scale(0.31,0.31)"><g transform="" style="fill: rgb(138, 163, 255);">
<rect width="100" height="100"/>
</g></g><g transform="translate(527,651) scale(2.2142857142857,2.2142857142857)"><g transform="" style="fill: rgb(138, 163, 255);">
    <path d="M13.999,13.999H0V0.028v-0.029h3.43C9.269-0.001,13.999,6.267,13.999,13.999z"/>
</g></g><g transform="translate(620,651) scale(0.062,0.062)"><g transform="" style="fill: rgb(138, 163, 255);">
<path d="M250,0c138.077,0,250,111.93,250,250c0,138.077-111.923,250-250,250C111.93,500,0,388.077,0,250C0,111.93,111.93,0,250,0z"
	/>
</g></g><g transform="translate(682,651) scale(2.2142857142857,2.2142857142857)"><g transform="" style="fill: rgb(138, 163, 255);">
    <path d="M13.999-0.001v14H0.029H0v-3.431C0,4.729,6.267-0.001,13.999-0.001z"/>
</g></g><g transform="translate(713,651) scale(2.2142857142857,2.2142857142857)"><g transform="" style="fill: rgb(138, 163, 255);">
    <path d="M0,14V0c0,0,9.15,4.38,14,0.55C14,0.55,14.24,14,0,14z"/>
</g></g><g transform="translate(775,651) scale(0.31,0.31)"><g transform="" style="fill: rgb(138, 163, 255);">
<rect width="100" height="100"/>
</g></g><g transform="translate(806,651) scale(2.2142857142857,2.2142857142857)"><g transform="" style="fill: rgb(138, 163, 255);">
    <path d="M13.999,13.999H0V0.028v-0.029h3.43C9.269-0.001,13.999,6.267,13.999,13.999z"/>
</g></g><g transform="translate(992,651) scale(2.2142857142857,2.2142857142857)"><g transform="" style="fill: rgb(138, 163, 255);">
    <path d="M-0.001,0l14,0c0,0-4.381,9.151-0.551,14C13.448,14-0.001,14.24-0.001,0z"/>
</g></g><g transform="translate(0,682) scale(0.31,0.31)"><g transform="" style="fill: rgb(138, 163, 255);">
<rect width="100" height="100"/>
</g></g><g transform="translate(186,682) scale(2.2142857142857,2.2142857142857)"><g transform="" style="fill: rgb(138, 163, 255);">
    <path d="M13.999,0v14c0,0-9.151-4.381-14-0.551C-0.001,13.449-0.242,0,13.999,0z"/>
</g></g><g transform="translate(217,682) scale(2.2142857142857,2.2142857142857)"><g transform="" style="fill: rgb(138, 163, 255);">
    <path d="M0,14V0c0,0,9.15,4.38,14,0.55C14,0.55,14.24,14,0,14z"/>
</g></g><g transform="translate(279,682) scale(0.31,0.31)"><g transform="" style="fill: rgb(138, 163, 255);">
<rect width="100" height="100"/>
</g></g><g transform="translate(310,682) scale(2.2142857142857,2.2142857142857)"><g transform="" style="fill: rgb(138, 163, 255);">
    <path d="M13.999,13.999H0V0.028v-0.029h3.43C9.269-0.001,13.999,6.267,13.999,13.999z"/>
</g></g><g transform="translate(403,682) scale(0.062,0.062)"><g transform="" style="fill: rgb(138, 163, 255);">
<path d="M250,0c138.077,0,250,111.93,250,250c0,138.077-111.923,250-250,250C111.93,500,0,388.077,0,250C0,111.93,111.93,0,250,0z"
	/>
</g></g><g transform="translate(527,682) scale(2.2142857142857,2.2142857142857)"><g transform="" style="fill: rgb(138, 163, 255);">
    <path d="M-0.001,0l14,0c0,0-4.381,9.151-0.551,14C13.448,14-0.001,14.24-0.001,0z"/>
</g></g><g transform="translate(589,682) scale(2.2142857142857,2.2142857142857)"><g transform="" style="fill: rgb(138, 163, 255);">
    <path d="M14,14H0c0,0,4.38-9.15,0.55-14C0.55,0,14-0.24,14,14z"/>
</g></g><g transform="translate(682,682) scale(2.2142857142857,2.2142857142857)"><g transform="" style="fill: rgb(138, 163, 255);">
    <path d="M-0.001,0l14,0c0,0-4.381,9.151-0.551,14C13.448,14-0.001,14.24-0.001,0z"/>
</g></g><g transform="translate(744,682) scale(2.2142857142857,2.2142857142857)"><g transform="" style="fill: rgb(138, 163, 255);">
    <path d="M13.999,0v14c0,0-9.151-4.381-14-0.551C-0.001,13.449-0.242,0,13.999,0z"/>
</g></g><g transform="translate(775,682) scale(0.31,0.31)"><g transform="" style="fill: rgb(138, 163, 255);">
<rect width="100" height="100"/>
</g></g><g transform="translate(806,682) scale(2.2142857142857,2.2142857142857)"><g transform="" style="fill: rgb(138, 163, 255);">
    <path d="M0,14V0h13.971H14v3.43C14,9.27,7.732,14,0,14z"/>
</g></g><g transform="translate(899,682) scale(2.2142857142857,2.2142857142857)"><g transform="" style="fill: rgb(138, 163, 255);">
    <path d="M13.999-0.001v14H0.029H0v-3.431C0,4.729,6.267-0.001,13.999-0.001z"/>
</g></g><g transform="translate(930,682) scale(0.31,0.31)"><g transform="" style="fill: rgb(138, 163, 255);">
<rect width="100" height="100"/>
</g></g><g transform="translate(961,682) scale(2.2142857142857,2.2142857142857)"><g transform="" style="fill: rgb(138, 163, 255);">
    <path d="M13.999,13.999H0V0.028v-0.029h3.43C9.269-0.001,13.999,6.267,13.999,13.999z"/>
</g></g><g transform="translate(0,713) scale(0.31,0.31)"><g transform="" style="fill: rgb(138, 163, 255);">
<rect width="100" height="100"/>
</g></g><g transform="translate(62,713) scale(2.2142857142857,2.2142857142857)"><g transform="" style="fill: rgb(138, 163, 255);">
    <path d="M14,14H0c0,0,4.38-9.15,0.55-14C0.55,0,14-0.24,14,14z"/>
</g></g><g transform="translate(155,713) scale(2.2142857142857,2.2142857142857)"><g transform="" style="fill: rgb(138, 163, 255);">
    <path d="M14,14H0c0,0,4.38-9.15,0.55-14C0.55,0,14-0.24,14,14z"/>
</g></g><g transform="translate(248,713) scale(2.2142857142857,2.2142857142857)"><g transform="" style="fill: rgb(138, 163, 255);">
    <path d="M13.999,0v14c0,0-9.151-4.381-14-0.551C-0.001,13.449-0.242,0,13.999,0z"/>
</g></g><g transform="translate(279,713) scale(0.31,0.31)"><g transform="" style="fill: rgb(138, 163, 255);">
<rect width="100" height="100"/>
</g></g><g transform="translate(310,713) scale(0.31,0.31)"><g transform="" style="fill: rgb(138, 163, 255);">
<rect width="100" height="100"/>
</g></g><g transform="translate(341,713) scale(0.31,0.31)"><g transform="" style="fill: rgb(138, 163, 255);">
<rect width="100" height="100"/>
</g></g><g transform="translate(372,713) scale(2.2142857142857,2.2142857142857)"><g transform="" style="fill: rgb(138, 163, 255);">
    <path d="M0,14V0c0,0,9.15,4.38,14,0.55C14,0.55,14.24,14,0,14z"/>
</g></g><g transform="translate(434,713) scale(2.2142857142857,2.2142857142857)"><g transform="" style="fill: rgb(138, 163, 255);">
    <path d="M14,14H0c0,0,4.38-9.15,0.55-14C0.55,0,14-0.24,14,14z"/>
</g></g><g transform="translate(496,713) scale(0.062,0.062)"><g transform="" style="fill: rgb(138, 163, 255);">
<path d="M250,0c138.077,0,250,111.93,250,250c0,138.077-111.923,250-250,250C111.93,500,0,388.077,0,250C0,111.93,111.93,0,250,0z"
	/>
</g></g><g transform="translate(589,713) scale(0.31,0.31)"><g transform="" style="fill: rgb(138, 163, 255);">
<rect width="100" height="100"/>
</g></g><g transform="translate(620,713) scale(0.31,0.31)"><g transform="" style="fill: rgb(138, 163, 255);">
<rect width="100" height="100"/>
</g></g><g transform="translate(651,713) scale(2.2142857142857,2.2142857142857)"><g transform="" style="fill: rgb(138, 163, 255);">
    <path d="M0,14V0c0,0,9.15,4.38,14,0.55C14,0.55,14.24,14,0,14z"/>
</g></g><g transform="translate(868,713) scale(2.2142857142857,2.2142857142857)"><g transform="" style="fill: rgb(138, 163, 255);">
    <path d="M13.999-0.001v14H0.029H0v-3.431C0,4.729,6.267-0.001,13.999-0.001z"/>
</g></g><g transform="translate(899,713) scale(0.31,0.31)"><g transform="" style="fill: rgb(138, 163, 255);">
<rect width="100" height="100"/>
</g></g><g transform="translate(930,713) scale(0.31,0.31)"><g transform="" style="fill: rgb(138, 163, 255);">
<rect width="100" height="100"/>
</g></g><g transform="translate(961,713) scale(0.31,0.31)"><g transform="" style="fill: rgb(138, 163, 255);">
<rect width="100" height="100"/>
</g></g><g transform="translate(992,713) scale(2.2142857142857,2.2142857142857)"><g transform="" style="fill: rgb(138, 163, 255);">
    <path d="M13.999,13.999H0V0.028v-0.029h3.43C9.269-0.001,13.999,6.267,13.999,13.999z"/>
</g></g><g transform="translate(0,744) scale(2.2142857142857,2.2142857142857)"><g transform="" style="fill: rgb(138, 163, 255);">
    <path d="M-0.001,0l14,0c0,0-4.381,9.151-0.551,14C13.448,14-0.001,14.24-0.001,0z"/>
</g></g><g transform="translate(62,744) scale(2.2142857142857,2.2142857142857)"><g transform="" style="fill: rgb(138, 163, 255);">
        <path d="M0-0.001h14v13.97v0.029l-3.431,0.001C4.731,13.999,0,7.731,0-0.001z"/>
</g></g><g transform="translate(93,744) scale(0.31,0.31)"><g transform="" style="fill: rgb(138, 163, 255);">
<rect width="100" height="100"/>
</g></g><g transform="translate(124,744) scale(0.31,0.31)"><g transform="" style="fill: rgb(138, 163, 255);">
<rect width="100" height="100"/>
</g></g><g transform="translate(155,744) scale(0.31,0.31)"><g transform="" style="fill: rgb(138, 163, 255);">
<rect width="100" height="100"/>
</g></g><g transform="translate(186,744) scale(0.31,0.31)"><g transform="" style="fill: rgb(138, 163, 255);">
<rect width="100" height="100"/>
</g></g><g transform="translate(217,744) scale(2.2142857142857,2.2142857142857)"><g transform="" style="fill: rgb(138, 163, 255);">
    <path d="M0,14V0c0,0,9.15,4.38,14,0.55C14,0.55,14.24,14,0,14z"/>
</g></g><g transform="translate(279,744) scale(0.31,0.31)"><g transform="" style="fill: rgb(138, 163, 255);">
<rect width="100" height="100"/>
</g></g><g transform="translate(310,744) scale(2.2142857142857,2.2142857142857)"><g transform="" style="fill: rgb(138, 163, 255);">
    <path d="M0,14V0h13.971H14v3.43C14,9.27,7.732,14,0,14z"/>
</g></g><g transform="translate(403,744) scale(2.2142857142857,2.2142857142857)"><g transform="" style="fill: rgb(138, 163, 255);">
    <path d="M13.999-0.001v14H0.029H0v-3.431C0,4.729,6.267-0.001,13.999-0.001z"/>
</g></g><g transform="translate(434,744) scale(2.2142857142857,2.2142857142857)"><g transform="" style="fill: rgb(138, 163, 255);">
    <path d="M0,14V0h13.971H14v3.43C14,9.27,7.732,14,0,14z"/>
</g></g><g transform="translate(589,744) scale(0.31,0.31)"><g transform="" style="fill: rgb(138, 163, 255);">
<rect width="100" height="100"/>
</g></g><g transform="translate(620,744) scale(0.31,0.31)"><g transform="" style="fill: rgb(138, 163, 255);">
<rect width="100" height="100"/>
</g></g><g transform="translate(682,744) scale(0.062,0.062)"><g transform="" style="fill: rgb(138, 163, 255);">
<path d="M250,0c138.077,0,250,111.93,250,250c0,138.077-111.923,250-250,250C111.93,500,0,388.077,0,250C0,111.93,111.93,0,250,0z"
	/>
</g></g><g transform="translate(744,744) scale(2.2142857142857,2.2142857142857)"><g transform="" style="fill: rgb(138, 163, 255);">
    <path d="M13.999-0.001v14H0.029H0v-3.431C0,4.729,6.267-0.001,13.999-0.001z"/>
</g></g><g transform="translate(775,744) scale(0.31,0.31)"><g transform="" style="fill: rgb(138, 163, 255);">
<rect width="100" height="100"/>
</g></g><g transform="translate(806,744) scale(0.31,0.31)"><g transform="" style="fill: rgb(138, 163, 255);">
<rect width="100" height="100"/>
</g></g><g transform="translate(837,744) scale(0.31,0.31)"><g transform="" style="fill: rgb(138, 163, 255);">
<rect width="100" height="100"/>
</g></g><g transform="translate(868,744) scale(0.31,0.31)"><g transform="" style="fill: rgb(138, 163, 255);">
<rect width="100" height="100"/>
</g></g><g transform="translate(992,744) scale(2.2142857142857,2.2142857142857)"><g transform="" style="fill: rgb(138, 163, 255);">
    <path d="M-0.001,0l14,0c0,0-4.381,9.151-0.551,14C13.448,14-0.001,14.24-0.001,0z"/>
</g></g><g transform="translate(248,775) scale(2.2142857142857,2.2142857142857)"><g transform="" style="fill: rgb(138, 163, 255);">
    <path d="M13.999,0v14c0,0-9.151-4.381-14-0.551C-0.001,13.449-0.242,0,13.999,0z"/>
</g></g><g transform="translate(279,775) scale(0.31,0.31)"><g transform="" style="fill: rgb(138, 163, 255);">
<rect width="100" height="100"/>
</g></g><g transform="translate(403,775) scale(0.31,0.31)"><g transform="" style="fill: rgb(138, 163, 255);">
<rect width="100" height="100"/>
</g></g><g transform="translate(496,775) scale(2.2142857142857,2.2142857142857)"><g transform="" style="fill: rgb(138, 163, 255);">
    <path d="M13.999-0.001v14H0.029H0v-3.431C0,4.729,6.267-0.001,13.999-0.001z"/>
</g></g><g transform="translate(527,775) scale(0.31,0.31)"><g transform="" style="fill: rgb(138, 163, 255);">
<rect width="100" height="100"/>
</g></g><g transform="translate(558,775) scale(0.31,0.31)"><g transform="" style="fill: rgb(138, 163, 255);">
<rect width="100" height="100"/>
</g></g><g transform="translate(589,775) scale(0.31,0.31)"><g transform="" style="fill: rgb(138, 163, 255);">
<rect width="100" height="100"/>
</g></g><g transform="translate(620,775) scale(0.31,0.31)"><g transform="" style="fill: rgb(138, 163, 255);">
<rect width="100" height="100"/>
</g></g><g transform="translate(744,775) scale(0.31,0.31)"><g transform="" style="fill: rgb(138, 163, 255);">
<rect width="100" height="100"/>
</g></g><g transform="translate(868,775) scale(0.31,0.31)"><g transform="" style="fill: rgb(138, 163, 255);">
<rect width="100" height="100"/>
</g></g><g transform="translate(930,775) scale(2.2142857142857,2.2142857142857)"><g transform="" style="fill: rgb(138, 163, 255);">
    <path d="M14,14H0c0,0,4.38-9.15,0.55-14C0.55,0,14-0.24,14,14z"/>
</g></g><g transform="translate(279,806) scale(2.2142857142857,2.2142857142857)"><g transform="" style="fill: rgb(138, 163, 255);">
        <path d="M0-0.001h14v13.97v0.029l-3.431,0.001C4.731,13.999,0,7.731,0-0.001z"/>
</g></g><g transform="translate(310,806) scale(2.2142857142857,2.2142857142857)"><g transform="" style="fill: rgb(138, 163, 255);">
    <path d="M13.999,13.999H0V0.028v-0.029h3.43C9.269-0.001,13.999,6.267,13.999,13.999z"/>
</g></g><g transform="translate(372,806) scale(2.2142857142857,2.2142857142857)"><g transform="" style="fill: rgb(138, 163, 255);">
    <path d="M13.999,0v14c0,0-9.151-4.381-14-0.551C-0.001,13.449-0.242,0,13.999,0z"/>
</g></g><g transform="translate(403,806) scale(0.31,0.31)"><g transform="" style="fill: rgb(138, 163, 255);">
<rect width="100" height="100"/>
</g></g><g transform="translate(434,806) scale(0.31,0.31)"><g transform="" style="fill: rgb(138, 163, 255);">
<rect width="100" height="100"/>
</g></g><g transform="translate(465,806) scale(0.31,0.31)"><g transform="" style="fill: rgb(138, 163, 255);">
<rect width="100" height="100"/>
</g></g><g transform="translate(496,806) scale(0.31,0.31)"><g transform="" style="fill: rgb(138, 163, 255);">
<rect width="100" height="100"/>
</g></g><g transform="translate(527,806) scale(0.31,0.31)"><g transform="" style="fill: rgb(138, 163, 255);">
<rect width="100" height="100"/>
</g></g><g transform="translate(620,806) scale(0.31,0.31)"><g transform="" style="fill: rgb(138, 163, 255);">
<rect width="100" height="100"/>
</g></g><g transform="translate(682,806) scale(2.2142857142857,2.2142857142857)"><g transform="" style="fill: rgb(138, 163, 255);">
    <path d="M13.999,0v14c0,0-9.151-4.381-14-0.551C-0.001,13.449-0.242,0,13.999,0z"/>
</g></g><g transform="translate(713,806) scale(0.31,0.31)"><g transform="" style="fill: rgb(138, 163, 255);">
<rect width="100" height="100"/>
</g></g><g transform="translate(744,806) scale(0.31,0.31)"><g transform="" style="fill: rgb(138, 163, 255);">
<rect width="100" height="100"/>
</g></g><g transform="translate(806,806) scale(0.062,0.062)"><g transform="" style="fill: rgb(138, 163, 255);">
<path d="M250,0c138.077,0,250,111.93,250,250c0,138.077-111.923,250-250,250C111.93,500,0,388.077,0,250C0,111.93,111.93,0,250,0z"
	/>
</g></g><g transform="translate(868,806) scale(0.31,0.31)"><g transform="" style="fill: rgb(138, 163, 255);">
<rect width="100" height="100"/>
</g></g><g transform="translate(930,806) scale(0.31,0.31)"><g transform="" style="fill: rgb(138, 163, 255);">
<rect width="100" height="100"/>
</g></g><g transform="translate(961,806) scale(2.2142857142857,2.2142857142857)"><g transform="" style="fill: rgb(138, 163, 255);">
    <path d="M13.999,13.999H0V0.028v-0.029h3.43C9.269-0.001,13.999,6.267,13.999,13.999z"/>
</g></g><g transform="translate(248,837) scale(2.2142857142857,2.2142857142857)"><g transform="" style="fill: rgb(138, 163, 255);">
    <path d="M14,14H0c0,0,4.38-9.15,0.55-14C0.55,0,14-0.24,14,14z"/>
</g></g><g transform="translate(310,837) scale(2.2142857142857,2.2142857142857)"><g transform="" style="fill: rgb(138, 163, 255);">
    <path d="M-0.001,0l14,0c0,0-4.381,9.151-0.551,14C13.448,14-0.001,14.24-0.001,0z"/>
</g></g><g transform="translate(434,837) scale(0.31,0.31)"><g transform="" style="fill: rgb(138, 163, 255);">
<rect width="100" height="100"/>
</g></g><g transform="translate(465,837) scale(0.31,0.31)"><g transform="" style="fill: rgb(138, 163, 255);">
<rect width="100" height="100"/>
</g></g><g transform="translate(496,837) scale(0.31,0.31)"><g transform="" style="fill: rgb(138, 163, 255);">
<rect width="100" height="100"/>
</g></g><g transform="translate(527,837) scale(0.31,0.31)"><g transform="" style="fill: rgb(138, 163, 255);">
<rect width="100" height="100"/>
</g></g><g transform="translate(558,837) scale(0.31,0.31)"><g transform="" style="fill: rgb(138, 163, 255);">
<rect width="100" height="100"/>
</g></g><g transform="translate(589,837) scale(0.31,0.31)"><g transform="" style="fill: rgb(138, 163, 255);">
<rect width="100" height="100"/>
</g></g><g transform="translate(620,837) scale(0.31,0.31)"><g transform="" style="fill: rgb(138, 163, 255);">
<rect width="100" height="100"/>
</g></g><g transform="translate(713,837) scale(2.2142857142857,2.2142857142857)"><g transform="" style="fill: rgb(138, 163, 255);">
        <path d="M0-0.001h14v13.97v0.029l-3.431,0.001C4.731,13.999,0,7.731,0-0.001z"/>
</g></g><g transform="translate(744,837) scale(0.31,0.31)"><g transform="" style="fill: rgb(138, 163, 255);">
<rect width="100" height="100"/>
</g></g><g transform="translate(868,837) scale(0.31,0.31)"><g transform="" style="fill: rgb(138, 163, 255);">
<rect width="100" height="100"/>
</g></g><g transform="translate(899,837) scale(0.31,0.31)"><g transform="" style="fill: rgb(138, 163, 255);">
<rect width="100" height="100"/>
</g></g><g transform="translate(930,837) scale(0.31,0.31)"><g transform="" style="fill: rgb(138, 163, 255);">
<rect width="100" height="100"/>
</g></g><g transform="translate(961,837) scale(0.31,0.31)"><g transform="" style="fill: rgb(138, 163, 255);">
<rect width="100" height="100"/>
</g></g><g transform="translate(248,868) scale(0.31,0.31)"><g transform="" style="fill: rgb(138, 163, 255);">
<rect width="100" height="100"/>
</g></g><g transform="translate(341,868) scale(2.2142857142857,2.2142857142857)"><g transform="" style="fill: rgb(138, 163, 255);">
    <path d="M13.999,0v14c0,0-9.151-4.381-14-0.551C-0.001,13.449-0.242,0,13.999,0z"/>
</g></g><g transform="translate(372,868) scale(2.2142857142857,2.2142857142857)"><g transform="" style="fill: rgb(138, 163, 255);">
    <path d="M13.999,13.999H0V0.028v-0.029h3.43C9.269-0.001,13.999,6.267,13.999,13.999z"/>
</g></g><g transform="translate(434,868) scale(2.2142857142857,2.2142857142857)"><g transform="" style="fill: rgb(138, 163, 255);">
        <path d="M0-0.001h14v13.97v0.029l-3.431,0.001C4.731,13.999,0,7.731,0-0.001z"/>
</g></g><g transform="translate(465,868) scale(0.31,0.31)"><g transform="" style="fill: rgb(138, 163, 255);">
<rect width="100" height="100"/>
</g></g><g transform="translate(496,868) scale(2.2142857142857,2.2142857142857)"><g transform="" style="fill: rgb(138, 163, 255);">
    <path d="M0,14V0h13.971H14v3.43C14,9.27,7.732,14,0,14z"/>
</g></g><g transform="translate(589,868) scale(2.2142857142857,2.2142857142857)"><g transform="" style="fill: rgb(138, 163, 255);">
        <path d="M0-0.001h14v13.97v0.029l-3.431,0.001C4.731,13.999,0,7.731,0-0.001z"/>
</g></g><g transform="translate(620,868) scale(0.31,0.31)"><g transform="" style="fill: rgb(138, 163, 255);">
<rect width="100" height="100"/>
</g></g><g transform="translate(651,868) scale(0.31,0.31)"><g transform="" style="fill: rgb(138, 163, 255);">
<rect width="100" height="100"/>
</g></g><g transform="translate(682,868) scale(2.2142857142857,2.2142857142857)"><g transform="" style="fill: rgb(138, 163, 255);">
    <path d="M0,14V0c0,0,9.15,4.38,14,0.55C14,0.55,14.24,14,0,14z"/>
</g></g><g transform="translate(744,868) scale(0.31,0.31)"><g transform="" style="fill: rgb(138, 163, 255);">
<rect width="100" height="100"/>
</g></g><g transform="translate(775,868) scale(0.31,0.31)"><g transform="" style="fill: rgb(138, 163, 255);">
<rect width="100" height="100"/>
</g></g><g transform="translate(806,868) scale(0.31,0.31)"><g transform="" style="fill: rgb(138, 163, 255);">
<rect width="100" height="100"/>
</g></g><g transform="translate(837,868) scale(0.31,0.31)"><g transform="" style="fill: rgb(138, 163, 255);">
<rect width="100" height="100"/>
</g></g><g transform="translate(868,868) scale(0.31,0.31)"><g transform="" style="fill: rgb(138, 163, 255);">
<rect width="100" height="100"/>
</g></g><g transform="translate(899,868) scale(2.2142857142857,2.2142857142857)"><g transform="" style="fill: rgb(138, 163, 255);">
    <path d="M0,14V0h13.971H14v3.43C14,9.27,7.732,14,0,14z"/>
</g></g><g transform="translate(961,868) scale(2.2142857142857,2.2142857142857)"><g transform="" style="fill: rgb(138, 163, 255);">
        <path d="M0-0.001h14v13.97v0.029l-3.431,0.001C4.731,13.999,0,7.731,0-0.001z"/>
</g></g><g transform="translate(992,868) scale(2.2142857142857,2.2142857142857)"><g transform="" style="fill: rgb(138, 163, 255);">
    <path d="M13.999,13.999H0V0.028v-0.029h3.43C9.269-0.001,13.999,6.267,13.999,13.999z"/>
</g></g><g transform="translate(248,899) scale(0.31,0.31)"><g transform="" style="fill: rgb(138, 163, 255);">
<rect width="100" height="100"/>
</g></g><g transform="translate(310,899) scale(0.062,0.062)"><g transform="" style="fill: rgb(138, 163, 255);">
<path d="M250,0c138.077,0,250,111.93,250,250c0,138.077-111.923,250-250,250C111.93,500,0,388.077,0,250C0,111.93,111.93,0,250,0z"
	/>
</g></g><g transform="translate(372,899) scale(2.2142857142857,2.2142857142857)"><g transform="" style="fill: rgb(138, 163, 255);">
    <path d="M-0.001,0l14,0c0,0-4.381,9.151-0.551,14C13.448,14-0.001,14.24-0.001,0z"/>
</g></g><g transform="translate(465,899) scale(0.31,0.31)"><g transform="" style="fill: rgb(138, 163, 255);">
<rect width="100" height="100"/>
</g></g><g transform="translate(558,899) scale(0.062,0.062)"><g transform="" style="fill: rgb(138, 163, 255);">
<path d="M250,0c138.077,0,250,111.93,250,250c0,138.077-111.923,250-250,250C111.93,500,0,388.077,0,250C0,111.93,111.93,0,250,0z"
	/>
</g></g><g transform="translate(713,899) scale(2.2142857142857,2.2142857142857)"><g transform="" style="fill: rgb(138, 163, 255);">
    <path d="M13.999,0v14c0,0-9.151-4.381-14-0.551C-0.001,13.449-0.242,0,13.999,0z"/>
</g></g><g transform="translate(744,899) scale(0.31,0.31)"><g transform="" style="fill: rgb(138, 163, 255);">
<rect width="100" height="100"/>
</g></g><g transform="translate(775,899) scale(0.31,0.31)"><g transform="" style="fill: rgb(138, 163, 255);">
<rect width="100" height="100"/>
</g></g><g transform="translate(868,899) scale(2.2142857142857,2.2142857142857)"><g transform="" style="fill: rgb(138, 163, 255);">
    <path d="M-0.001,0l14,0c0,0-4.381,9.151-0.551,14C13.448,14-0.001,14.24-0.001,0z"/>
</g></g><g transform="translate(930,899) scale(2.2142857142857,2.2142857142857)"><g transform="" style="fill: rgb(138, 163, 255);">
    <path d="M14,14H0c0,0,4.38-9.15,0.55-14C0.55,0,14-0.24,14,14z"/>
</g></g><g transform="translate(992,899) scale(2.2142857142857,2.2142857142857)"><g transform="" style="fill: rgb(138, 163, 255);">
    <path d="M-0.001,0l14,0c0,0-4.381,9.151-0.551,14C13.448,14-0.001,14.24-0.001,0z"/>
</g></g><g transform="translate(248,930) scale(2.2142857142857,2.2142857142857)"><g transform="" style="fill: rgb(138, 163, 255);">
    <path d="M-0.001,0l14,0c0,0-4.381,9.151-0.551,14C13.448,14-0.001,14.24-0.001,0z"/>
</g></g><g transform="translate(403,930) scale(2.2142857142857,2.2142857142857)"><g transform="" style="fill: rgb(138, 163, 255);">
    <path d="M13.999-0.001v14H0.029H0v-3.431C0,4.729,6.267-0.001,13.999-0.001z"/>
</g></g><g transform="translate(434,930) scale(0.31,0.31)"><g transform="" style="fill: rgb(138, 163, 255);">
<rect width="100" height="100"/>
</g></g><g transform="translate(465,930) scale(0.31,0.31)"><g transform="" style="fill: rgb(138, 163, 255);">
<rect width="100" height="100"/>
</g></g><g transform="translate(496,930) scale(2.2142857142857,2.2142857142857)"><g transform="" style="fill: rgb(138, 163, 255);">
    <path d="M0,14V0c0,0,9.15,4.38,14,0.55C14,0.55,14.24,14,0,14z"/>
</g></g><g transform="translate(620,930) scale(2.2142857142857,2.2142857142857)"><g transform="" style="fill: rgb(138, 163, 255);">
    <path d="M13.999,0v14c0,0-9.151-4.381-14-0.551C-0.001,13.449-0.242,0,13.999,0z"/>
</g></g><g transform="translate(651,930) scale(2.2142857142857,2.2142857142857)"><g transform="" style="fill: rgb(138, 163, 255);">
    <path d="M13.999,13.999H0V0.028v-0.029h3.43C9.269-0.001,13.999,6.267,13.999,13.999z"/>
</g></g><g transform="translate(775,930) scale(2.2142857142857,2.2142857142857)"><g transform="" style="fill: rgb(138, 163, 255);">
        <path d="M0-0.001h14v13.97v0.029l-3.431,0.001C4.731,13.999,0,7.731,0-0.001z"/>
</g></g><g transform="translate(806,930) scale(0.31,0.31)"><g transform="" style="fill: rgb(138, 163, 255);">
<rect width="100" height="100"/>
</g></g><g transform="translate(837,930) scale(2.2142857142857,2.2142857142857)"><g transform="" style="fill: rgb(138, 163, 255);">
    <path d="M0,14V0c0,0,9.15,4.38,14,0.55C14,0.55,14.24,14,0,14z"/>
</g></g><g transform="translate(899,930) scale(2.2142857142857,2.2142857142857)"><g transform="" style="fill: rgb(138, 163, 255);">
    <path d="M13.999,0v14c0,0-9.151-4.381-14-0.551C-0.001,13.449-0.242,0,13.999,0z"/>
</g></g><g transform="translate(930,930) scale(0.31,0.31)"><g transform="" style="fill: rgb(138, 163, 255);">
<rect width="100" height="100"/>
</g></g><g transform="translate(341,961) scale(2.2142857142857,2.2142857142857)"><g transform="" style="fill: rgb(138, 163, 255);">
    <path d="M13.999-0.001v14H0.029H0v-3.431C0,4.729,6.267-0.001,13.999-0.001z"/>
</g></g><g transform="translate(372,961) scale(0.31,0.31)"><g transform="" style="fill: rgb(138, 163, 255);">
<rect width="100" height="100"/>
</g></g><g transform="translate(403,961) scale(0.31,0.31)"><g transform="" style="fill: rgb(138, 163, 255);">
<rect width="100" height="100"/>
</g></g><g transform="translate(465,961) scale(0.31,0.31)"><g transform="" style="fill: rgb(138, 163, 255);">
<rect width="100" height="100"/>
</g></g><g transform="translate(558,961) scale(0.062,0.062)"><g transform="" style="fill: rgb(138, 163, 255);">
<path d="M250,0c138.077,0,250,111.93,250,250c0,138.077-111.923,250-250,250C111.93,500,0,388.077,0,250C0,111.93,111.93,0,250,0z"
	/>
</g></g><g transform="translate(651,961) scale(2.2142857142857,2.2142857142857)"><g transform="" style="fill: rgb(138, 163, 255);">
    <path d="M-0.001,0l14,0c0,0-4.381,9.151-0.551,14C13.448,14-0.001,14.24-0.001,0z"/>
</g></g><g transform="translate(868,961) scale(0.062,0.062)"><g transform="" style="fill: rgb(138, 163, 255);">
<path d="M250,0c138.077,0,250,111.93,250,250c0,138.077-111.923,250-250,250C111.93,500,0,388.077,0,250C0,111.93,111.93,0,250,0z"
	/>
</g></g><g transform="translate(930,961) scale(2.2142857142857,2.2142857142857)"><g transform="" style="fill: rgb(138, 163, 255);">
    <path d="M-0.001,0l14,0c0,0-4.381,9.151-0.551,14C13.448,14-0.001,14.24-0.001,0z"/>
</g></g><g transform="translate(248,992) scale(2.2142857142857,2.2142857142857)"><g transform="" style="fill: rgb(138, 163, 255);">
    <path d="M13.999,0v14c0,0-9.151-4.381-14-0.551C-0.001,13.449-0.242,0,13.999,0z"/>
</g></g><g transform="translate(279,992) scale(0.31,0.31)"><g transform="" style="fill: rgb(138, 163, 255);">
<rect width="100" height="100"/>
</g></g><g transform="translate(310,992) scale(0.31,0.31)"><g transform="" style="fill: rgb(138, 163, 255);">
<rect width="100" height="100"/>
</g></g><g transform="translate(341,992) scale(2.2142857142857,2.2142857142857)"><g transform="" style="fill: rgb(138, 163, 255);">
    <path d="M0,14V0h13.971H14v3.43C14,9.27,7.732,14,0,14z"/>
</g></g><g transform="translate(403,992) scale(2.2142857142857,2.2142857142857)"><g transform="" style="fill: rgb(138, 163, 255);">
    <path d="M-0.001,0l14,0c0,0-4.381,9.151-0.551,14C13.448,14-0.001,14.24-0.001,0z"/>
</g></g><g transform="translate(465,992) scale(2.2142857142857,2.2142857142857)"><g transform="" style="fill: rgb(138, 163, 255);">
        <path d="M0-0.001h14v13.97v0.029l-3.431,0.001C4.731,13.999,0,7.731,0-0.001z"/>
</g></g><g transform="translate(496,992) scale(0.31,0.31)"><g transform="" style="fill: rgb(138, 163, 255);">
<rect width="100" height="100"/>
</g></g><g transform="translate(527,992) scale(2.2142857142857,2.2142857142857)"><g transform="" style="fill: rgb(138, 163, 255);">
    <path d="M0,14V0c0,0,9.15,4.38,14,0.55C14,0.55,14.24,14,0,14z"/>
</g></g><g transform="translate(682,992) scale(2.2142857142857,2.2142857142857)"><g transform="" style="fill: rgb(138, 163, 255);">
    <path d="M13.999,0v14c0,0-9.151-4.381-14-0.551C-0.001,13.449-0.242,0,13.999,0z"/>
</g></g><g transform="translate(713,992) scale(0.31,0.31)"><g transform="" style="fill: rgb(138, 163, 255);">
<rect width="100" height="100"/>
</g></g><g transform="translate(744,992) scale(2.2142857142857,2.2142857142857)"><g transform="" style="fill: rgb(138, 163, 255);">
    <path d="M0,14V0c0,0,9.15,4.38,14,0.55C14,0.55,14.24,14,0,14z"/>
</g></g><g transform="translate(837,992) scale(0.062,0.062)"><g transform="" style="fill: rgb(138, 163, 255);">
<path d="M250,0c138.077,0,250,111.93,250,250c0,138.077-111.923,250-250,250C111.93,500,0,388.077,0,250C0,111.93,111.93,0,250,0z"
	/>
</g></g><g transform="translate(961,992) scale(0.062,0.062)"><g transform="" style="fill: rgb(138, 163, 255);">
<path d="M250,0c138.077,0,250,111.93,250,250c0,138.077-111.923,250-250,250C111.93,500,0,388.077,0,250C0,111.93,111.93,0,250,0z"
	/>
</g></g><g transform="translate(0,0) scale(2.17, 2.17)"><g transform="" style="fill: rgb(138, 163, 255);">
<g>
	<rect x="15" y="15" style="fill:none;" width="70" height="70"/>
	<path d="M85,0H15H0v15v70v15h15h70h15V85V15V0H85z M85,85H15V15h70V85z"/>
</g>
</g></g><g transform="translate(806,0) scale(2.17, 2.17)"><g transform="" style="fill: rgb(138, 163, 255);">
<g>
	<rect x="15" y="15" style="fill:none;" width="70" height="70"/>
	<path d="M85,0H15H0v15v70v15h15h70h15V85V15V0H85z M85,85H15V15h70V85z"/>
</g>
</g></g><g transform="translate(0,806) scale(2.17, 2.17)"><g transform="" style="fill: rgb(138, 163, 255);">
<g>
	<rect x="15" y="15" style="fill:none;" width="70" height="70"/>
	<path d="M85,0H15H0v15v70v15h15h70h15V85V15V0H85z M85,85H15V15h70V85z"/>
</g>
</g></g><g transform="translate(62,62) scale(0.93, 0.93)"><g transform="" style="fill: rgb(138, 163, 255);">
<path d="M99,50c0-7.839-5.42-14.394-12.713-16.17C93.58,32.055,99,25.499,99,17.66C99,8.458,91.541,1,82.34,1
	c-7.838,0-14.395,5.421-16.17,12.713C64.395,6.421,57.838,1,50,1c-7.839,0-14.395,5.421-16.17,12.712C32.055,6.421,25.499,1,17.66,1
	C8.458,1,1,8.458,1,17.66c0,7.839,5.421,14.395,12.713,16.17C6.421,35.606,1,42.161,1,50c0,7.838,5.421,14.395,12.713,16.17
	C6.421,67.945,1,74.502,1,82.34C1,91.541,8.458,99,17.66,99c7.839,0,14.395-5.42,16.17-12.713C35.605,93.58,42.161,99,50,99
	c7.838,0,14.395-5.42,16.17-12.713C67.945,93.58,74.502,99,82.34,99C91.541,99,99,91.541,99,82.34c0-7.838-5.42-14.395-12.713-16.17
	C93.58,64.395,99,57.838,99,50z"/>
</g></g><g transform="translate(868,62) scale(0.93, 0.93)"><g transform="" style="fill: rgb(138, 163, 255);">
<path d="M99,50c0-7.839-5.42-14.394-12.713-16.17C93.58,32.055,99,25.499,99,17.66C99,8.458,91.541,1,82.34,1
	c-7.838,0-14.395,5.421-16.17,12.713C64.395,6.421,57.838,1,50,1c-7.839,0-14.395,5.421-16.17,12.712C32.055,6.421,25.499,1,17.66,1
	C8.458,1,1,8.458,1,17.66c0,7.839,5.421,14.395,12.713,16.17C6.421,35.606,1,42.161,1,50c0,7.838,5.421,14.395,12.713,16.17
	C6.421,67.945,1,74.502,1,82.34C1,91.541,8.458,99,17.66,99c7.839,0,14.395-5.42,16.17-12.713C35.605,93.58,42.161,99,50,99
	c7.838,0,14.395-5.42,16.17-12.713C67.945,93.58,74.502,99,82.34,99C91.541,99,99,91.541,99,82.34c0-7.838-5.42-14.395-12.713-16.17
	C93.58,64.395,99,57.838,99,50z"/>
</g></g><g transform="translate(62,868) scale(0.93, 0.93)"><g transform="" style="fill: rgb(138, 163, 255);">
<path d="M99,50c0-7.839-5.42-14.394-12.713-16.17C93.58,32.055,99,25.499,99,17.66C99,8.458,91.541,1,82.34,1
	c-7.838,0-14.395,5.421-16.17,12.713C64.395,6.421,57.838,1,50,1c-7.839,0-14.395,5.421-16.17,12.712C32.055,6.421,25.499,1,17.66,1
	C8.458,1,1,8.458,1,17.66c0,7.839,5.421,14.395,12.713,16.17C6.421,35.606,1,42.161,1,50c0,7.838,5.421,14.395,12.713,16.17
	C6.421,67.945,1,74.502,1,82.34C1,91.541,8.458,99,17.66,99c7.839,0,14.395-5.42,16.17-12.713C35.605,93.58,42.161,99,50,99
	c7.838,0,14.395-5.42,16.17-12.713C67.945,93.58,74.502,99,82.34,99C91.541,99,99,91.541,99,82.34c0-7.838-5.42-14.395-12.713-16.17
	C93.58,64.395,99,57.838,99,50z"/>
</g></g></g></svg>